<?xml version="1.0" encoding="UTF-8"?>
<!DOCTYPE svg PUBLIC "-//W3C//DTD SVG 1.1//EN" "http://www.w3.org/Graphics/SVG/1.1/DTD/svg11.dtd">
<!-- Creator: CorelDRAW 2020 (64-Bit) -->
<svg xmlns="http://www.w3.org/2000/svg" xml:space="preserve" width="100%" height="100%" version="1.1" style="shape-rendering:geometricPrecision; text-rendering:geometricPrecision; image-rendering:optimizeQuality; fill-rule:evenodd; clip-rule:evenodd"
viewBox="0 0 20000 6012"
 xmlns:xlink="http://www.w3.org/1999/xlink"
 xmlns:xodm="http://www.corel.com/coreldraw/odm/2003">
 <defs>
  <style type="text/css">
   <![CDATA[
    .fil1 {fill:#9E9E9F;fill-rule:nonzero}
    .fil2 {fill:#444343;fill-rule:nonzero}
    .fil0 {fill:#D6236B;fill-rule:nonzero}
   ]]>
  </style>
 </defs>
 <g id="Livello_x0020_1">
  <metadata id="CorelCorpID_0Corel-Layer"/>
  <g id="_1652660302160">
   <g>
    <path class="fil0" d="M8572 3218c-35,43 -77,80 -126,111 -49,31 -101,57 -157,78 -56,20 -114,35 -173,46 -60,10 -119,15 -177,15 -112,0 -215,-19 -309,-57 -94,-38 -176,-93 -245,-166 -69,-73 -122,-163 -161,-271 -38,-108 -58,-231 -58,-371 0,-113 17,-218 52,-316 35,-98 84,-183 149,-255 65,-72 144,-128 238,-169 94,-41 199,-62 316,-62 97,0 187,16 269,49 83,33 154,79 214,141 60,61 107,137 141,227 34,90 51,193 51,308 0,45 -5,75 -14,89 -10,15 -28,22 -54,22l-1082 0c3,102 17,191 42,267 25,76 60,139 105,189 45,51 98,88 160,114 62,25 131,38 208,38 71,0 133,-8 185,-25 52,-16 96,-34 133,-53 37,-19 69,-37 94,-54 25,-16 47,-25 65,-25 23,0 42,9 54,27l80 104zm-230 -759l0 0c0,-66 -9,-127 -28,-181 -19,-55 -46,-102 -82,-142 -36,-40 -79,-71 -130,-93 -51,-22 -109,-33 -174,-33 -136,0 -244,40 -324,119 -79,79 -129,189 -148,330l885 0z"/>
    <path class="fil0" d="M10255 3445l-273 0c-23,0 -42,-6 -55,-18 -13,-12 -24,-26 -33,-41l-408 -635c-4,15 -9,30 -14,44 -5,14 -11,27 -20,39l-377 551c-11,15 -22,29 -34,41 -12,12 -29,18 -50,18l-254 0 567 -831 -545 -788 273 0c23,0 40,4 51,11 11,7 20,18 29,32l398 607c9,-31 22,-61 40,-89l348 -512c10,-15 20,-27 31,-36 11,-9 25,-14 41,-14l262 0 -545 774 567 846z"/>
    <path class="fil0" d="M11572 2114c-8,12 -17,21 -26,27 -9,6 -20,10 -35,10 -16,0 -34,-7 -53,-20 -19,-13 -43,-28 -71,-44 -28,-16 -63,-31 -104,-44 -41,-13 -91,-20 -151,-20 -80,0 -150,14 -211,42 -61,28 -112,69 -153,122 -41,53 -72,118 -93,193 -21,76 -31,160 -31,254 0,98 11,185 34,261 22,76 54,140 95,192 41,52 91,91 149,118 58,27 123,41 196,41 69,0 126,-8 171,-25 45,-17 82,-35 111,-55 29,-20 54,-39 74,-55 20,-16 39,-25 58,-25 23,0 42,9 54,27l80 104c-35,44 -75,81 -120,112 -45,31 -93,57 -145,78 -52,21 -106,36 -162,46 -57,10 -114,14 -173,14 -101,0 -195,-19 -282,-56 -87,-37 -162,-91 -226,-162 -64,-71 -114,-158 -150,-261 -36,-103 -54,-221 -54,-353 0,-120 17,-232 50,-334 34,-102 83,-190 147,-265 64,-74 144,-132 238,-173 94,-42 203,-62 325,-62 114,0 214,18 301,55 87,37 164,89 231,156l-75 102z"/>
    <path class="fil0" d="M13257 3218c-35,43 -77,80 -126,111 -49,31 -101,57 -157,78 -56,20 -114,35 -173,46 -60,10 -119,15 -177,15 -112,0 -215,-19 -309,-57 -94,-38 -176,-93 -245,-166 -69,-73 -122,-163 -161,-271 -38,-108 -58,-231 -58,-371 0,-113 17,-218 52,-316 35,-98 84,-183 150,-255 65,-72 144,-128 238,-169 94,-41 199,-62 316,-62 97,0 187,16 269,49 83,33 154,79 214,141 60,61 107,137 141,227 34,90 51,193 51,308 0,45 -5,75 -14,89 -10,15 -28,22 -54,22l-1082 0c3,102 17,191 42,267 25,76 60,139 105,189 45,51 98,88 160,114 62,25 131,38 208,38 71,0 133,-8 185,-25 52,-16 96,-34 134,-53 37,-19 68,-37 93,-54 25,-16 47,-25 65,-25 23,0 42,9 54,27l80 104zm-230 -759l0 0c0,-66 -9,-127 -28,-181 -19,-55 -46,-102 -82,-142 -36,-40 -79,-71 -130,-93 -51,-22 -109,-33 -174,-33 -136,0 -244,40 -324,119 -79,79 -129,189 -148,330l886 0z"/>
    <polygon class="fil0" points="13925,1091 13925,3445 13640,3445 13640,1091 "/>
    <polygon class="fil0" points="14679,1091 14679,3445 14395,3445 14395,1091 "/>
    <path class="fil0" d="M16453 3218c-35,43 -77,80 -126,111 -49,31 -101,57 -158,78 -56,20 -114,35 -173,46 -60,10 -119,15 -177,15 -112,0 -215,-19 -309,-57 -94,-38 -176,-93 -245,-166 -69,-73 -122,-163 -161,-271 -38,-108 -58,-231 -58,-371 0,-113 17,-218 52,-316 35,-98 84,-183 149,-255 65,-72 144,-128 238,-169 94,-41 199,-62 317,-62 97,0 187,16 269,49 83,33 154,79 214,141 60,61 107,137 142,227 34,90 51,193 51,308 0,45 -5,75 -14,89 -10,15 -28,22 -54,22l-1082 0c3,102 17,191 42,267 25,76 60,139 105,189 45,51 98,88 160,114 62,25 131,38 208,38 71,0 133,-8 185,-25 52,-16 96,-34 133,-53 37,-19 69,-37 94,-54 25,-16 47,-25 65,-25 23,0 42,9 54,27l80 104zm-230 -759l0 0c0,-66 -9,-127 -28,-181 -19,-55 -46,-102 -82,-142 -36,-40 -79,-71 -130,-93 -51,-22 -109,-33 -174,-33 -136,0 -244,40 -324,119 -79,79 -129,189 -148,330l885 0zm-414 -874l0 0c-82,0 -151,-11 -206,-34 -55,-23 -100,-54 -135,-93 -35,-39 -59,-84 -74,-137 -15,-52 -22,-108 -22,-166l201 0c0,35 4,68 11,98 7,30 20,56 38,78 18,21 42,38 73,50 30,12 68,18 114,18 46,0 84,-6 114,-18 30,-12 55,-29 73,-50 18,-21 31,-47 38,-78 7,-30 11,-63 11,-98l201 0c0,59 -7,114 -22,166 -15,52 -40,98 -74,137 -35,39 -80,70 -136,93 -56,23 -124,34 -205,34z"/>
    <path class="fil0" d="M17097 2150c51,-111 114,-197 189,-260 75,-62 166,-94 273,-94 34,0 67,4 98,11 31,7 59,19 84,35l-21 213c-6,27 -23,40 -48,40 -15,0 -37,-3 -66,-10 -29,-6 -61,-10 -97,-10 -51,0 -97,7 -137,22 -40,15 -76,37 -107,66 -32,29 -60,66 -85,109 -25,43 -48,92 -68,148l0 1023 -286 0 0 -1619 163 0c31,0 52,6 64,18 12,12 20,32 24,61l19 246z"/>
    <path class="fil0" d="M19239 3218c-35,43 -77,80 -126,111 -49,31 -101,57 -157,78 -56,20 -114,35 -173,46 -60,10 -119,15 -177,15 -112,0 -215,-19 -309,-57 -94,-38 -176,-93 -245,-166 -69,-73 -122,-163 -161,-271 -38,-108 -58,-231 -58,-371 0,-113 17,-218 52,-316 35,-98 84,-183 149,-255 65,-72 144,-128 238,-169 94,-41 199,-62 317,-62 97,0 187,16 269,49 83,33 154,79 214,141 60,61 107,137 142,227 34,90 51,193 51,308 0,45 -5,75 -14,89 -10,15 -28,22 -54,22l-1082 0c3,102 17,191 42,267 25,76 60,139 105,189 45,51 98,88 160,114 62,25 131,38 208,38 71,0 133,-8 185,-25 52,-16 96,-34 134,-53 37,-19 68,-37 93,-54 25,-16 47,-25 65,-25 23,0 42,9 54,27l80 104zm-230 -759l0 0c0,-66 -9,-127 -28,-181 -19,-55 -46,-102 -81,-142 -36,-40 -79,-71 -130,-93 -51,-22 -109,-33 -174,-33 -136,0 -244,40 -324,119 -79,79 -129,189 -148,330l886 0z"/>
   </g>
   <g>
    <path class="fil0" d="M3066 1754c-147,336 -155,727 0,1080 155,-353 147,-744 0,-1080z"/>
    <path class="fil0" d="M1982 2380c217,295 552,498 935,540 -228,-311 -571,-499 -935,-540z"/>
    <path class="fil0" d="M2493 870c247,142 440,342 572,573 133,-230 326,-430 572,-573 140,-81 288,-138 438,-172 1,0 2,0 3,-1 -247,-282 -609,-461 -1013,-461 -404,0 -767,178 -1013,461 1,0 2,0 3,1 150,34 298,91 438,172z"/>
    <path class="fil0" d="M3017 2927c1,0 2,0 3,0 1,-1 1,-2 2,-3 -214,-427 -215,-912 -36,-1324 -114,-189 -275,-353 -480,-471 -198,-115 -414,-173 -628,-180 -101,189 -158,404 -158,633 0,236 61,458 168,651 447,51 866,294 1129,693z"/>
    <path class="fil0" d="M3145 1600c179,412 179,897 -36,1324 1,1 1,2 2,3 1,0 2,0 3,0 263,-399 682,-642 1129,-693 107,-193 168,-415 168,-651 0,-229 -57,-445 -158,-633 -214,7 -429,65 -628,180 -205,118 -366,282 -480,471z"/>
    <path class="fil0" d="M4150 2380c-364,41 -707,229 -935,540 383,-42 718,-245 935,-540z"/>
    <path class="fil0" d="M1528 671c50,-6 100,-9 150,-11 11,0 23,0 34,0 6,-10 11,-20 17,-30 26,-43 54,-85 84,-125 150,-201 347,-364 575,-474 24,-12 49,-23 74,-33 -668,134 -1258,485 -1693,976 20,-15 40,-30 61,-44 209,-142 449,-231 698,-261z"/>
    <path class="fil0" d="M4319 507c30,40 58,82 84,125 6,10 11,20 17,30 11,0 23,-1 34,0 50,1 100,5 150,11 249,30 489,119 698,261 21,14 41,29 61,44 -435,-492 -1024,-843 -1693,-976 25,10 49,21 74,33 228,110 425,273 575,474z"/>
    <path class="fil0" d="M5856 2841c-20,46 -42,91 -66,135 -5,10 -12,19 -17,29 6,10 12,19 17,29 24,44 46,89 66,135 99,230 142,483 123,735 -2,26 -5,52 -8,78 103,-307 160,-636 160,-977 0,-342 -57,-670 -160,-978 3,26 6,52 8,78 19,252 -24,505 -123,735z"/>
    <path class="fil0" d="M4604 5340c-50,6 -100,9 -150,11 -11,0 -23,0 -34,0 -6,10 -11,20 -17,30 -26,43 -54,85 -84,125 -150,201 -347,364 -575,474 -24,12 -49,23 -74,33 668,-134 1258,-485 1693,-976 -20,15 -40,30 -61,44 -209,142 -449,231 -698,261z"/>
    <path class="fil0" d="M1813 5505c-30,-40 -58,-82 -84,-125 -6,-10 -11,-20 -17,-30 -11,0 -23,1 -34,0 -50,-1 -100,-5 -150,-11 -249,-30 -489,-119 -698,-261 -21,-14 -41,-29 -61,-44 435,492 1024,843 1693,976 -25,-10 -49,-21 -74,-33 -228,-110 -425,-273 -575,-474z"/>
    <path class="fil0" d="M275 3170c20,-46 42,-91 66,-135 5,-10 12,-19 17,-29 -6,-10 -12,-19 -17,-29 -24,-44 -46,-89 -66,-135 -99,-230 -142,-483 -123,-735 2,-26 5,-52 8,-78 -103,307 -160,636 -160,978 0,342 57,670 160,977 -3,-26 -6,-52 -8,-78 -19,-252 24,-505 123,-735z"/>
    <path class="fil0" d="M3066 4257c147,-336 155,-727 0,-1080 -155,353 -147,744 0,1080z"/>
    <path class="fil0" d="M4150 3632c-217,-295 -552,-498 -935,-540 228,311 571,499 935,540z"/>
    <path class="fil0" d="M5440 3006c-113,-182 -271,-339 -469,-454 -205,-118 -427,-176 -648,-180 -268,361 -687,603 -1164,631 -1,1 -1,2 -2,3 1,1 1,2 2,3 477,28 897,270 1164,631 221,-4 443,-62 648,-180 198,-115 356,-272 469,-454z"/>
    <path class="fil0" d="M5569 3285c-104,113 -227,212 -368,293 -247,142 -516,210 -782,209 133,230 210,497 210,782 0,162 -25,318 -70,465 0,1 -1,2 -1,3 368,-73 703,-297 905,-647 202,-350 229,-753 108,-1108 -1,1 -1,2 -2,2z"/>
    <path class="fil0" d="M3115 3085c-1,0 -2,0 -3,0 -1,1 -1,2 -2,3 214,427 215,911 36,1324 114,189 275,353 480,471 198,115 414,173 628,180 101,-189 158,-404 158,-633 0,-236 -61,-458 -168,-651 -447,-51 -866,-294 -1129,-693z"/>
    <path class="fil0" d="M4558 974c0,1 1,2 1,3 46,147 70,303 70,465 0,285 -77,552 -210,782 266,0 535,67 782,209 140,81 263,180 368,293 1,1 1,2 2,2 121,-355 94,-758 -108,-1108 -202,-350 -538,-575 -905,-647z"/>
    <path class="fil0" d="M562 2727c104,-113 227,-212 368,-293 247,-142 516,-210 782,-209 -133,-230 -210,-497 -210,-782 0,-162 25,-318 70,-465 0,-1 1,-2 1,-3 -368,73 -703,297 -905,647 -202,350 -229,753 -108,1108 1,-1 1,-2 2,-2z"/>
    <path class="fil0" d="M3638 5142c-247,-142 -440,-342 -572,-573 -133,230 -326,430 -572,573 -140,81 -288,138 -438,172 -1,0 -2,0 -3,1 247,282 609,461 1013,461 404,0 766,-178 1013,-461 -1,0 -2,0 -3,-1 -150,-34 -298,-91 -438,-172z"/>
    <path class="fil0" d="M562 3285c-1,-1 -1,-2 -2,-2 -121,355 -94,758 108,1108 202,350 538,575 905,647 0,-1 -1,-2 -1,-3 -46,-147 -70,-303 -70,-465 0,-285 77,-552 210,-782 -266,0 -535,-67 -782,-209 -140,-81 -263,-180 -368,-293z"/>
    <path class="fil0" d="M2917 3092c-383,42 -718,245 -935,540 364,-41 707,-229 935,-540z"/>
    <path class="fil0" d="M2973 3009c1,-1 1,-2 2,-3 -1,-1 -1,-2 -2,-3 -477,-28 -897,-270 -1164,-631 -221,4 -443,62 -648,180 -198,115 -356,272 -469,454 113,182 271,339 469,454 205,118 427,176 648,180 268,-361 687,-603 1164,-631z"/>
    <path class="fil0" d="M2986 4411c-179,-412 -179,-897 36,-1324 -1,-1 -1,-2 -2,-3 -1,0 -2,0 -3,0 -263,399 -682,642 -1129,693 -107,193 -168,415 -168,651 0,229 57,445 158,633 214,-7 429,-65 628,-180 205,-118 366,-282 480,-471z"/>
   </g>
   <g>
    <path class="fil1" d="M8070 3942l-437 1005c-3,7 -7,13 -12,18 -5,5 -12,7 -21,7l-52 0 134 -297 -322 -732 60 0c8,0 14,2 18,6 5,4 8,8 9,13l256 592c3,8 6,15 8,23 2,8 4,16 7,24 3,-8 5,-16 8,-24 3,-8 6,-16 9,-23l253 -592c3,-6 6,-10 11,-13 5,-3 10,-5 15,-5l56 0z"/>
    <path class="fil1" d="M8506 3930c55,0 103,9 146,28 43,19 79,45 109,79 30,34 52,75 68,123 16,48 23,102 23,162 0,60 -8,113 -23,161 -16,48 -38,89 -68,123 -30,34 -66,60 -109,79 -43,18 -92,28 -146,28 -55,0 -103,-9 -146,-28 -43,-18 -80,-45 -109,-79 -30,-34 -52,-75 -68,-123 -16,-48 -23,-102 -23,-161 0,-60 8,-114 23,-162 16,-48 38,-89 68,-123 30,-34 66,-61 109,-79 43,-19 92,-28 146,-28zm0 726l0 0c45,0 85,-8 119,-23 34,-16 62,-38 85,-67 23,-29 40,-64 51,-105 11,-41 17,-87 17,-138 0,-50 -6,-96 -17,-138 -11,-41 -28,-77 -51,-106 -23,-29 -51,-52 -85,-68 -34,-16 -73,-24 -119,-24 -45,0 -85,8 -119,24 -34,16 -62,38 -85,68 -23,29 -40,65 -51,106 -11,41 -17,87 -17,138 0,51 6,97 17,138 11,41 29,76 51,105 23,29 51,51 85,67 34,16 74,23 119,23z"/>
    <path class="fil1" d="M9648 3942l0 761 -41 0c-13,0 -20,-7 -22,-20l-7 -113c-35,44 -76,79 -122,106 -46,26 -97,40 -154,40 -42,0 -79,-7 -111,-20 -32,-13 -58,-32 -79,-57 -21,-25 -37,-55 -47,-90 -11,-35 -16,-75 -16,-119l0 -486 73 0 0 486c0,71 16,127 49,168 33,40 82,61 149,61 49,0 96,-13 139,-38 43,-25 81,-60 115,-105l0 -572 73 0z"/>
    <path class="fil1" d="M9968 4126c12,-31 25,-59 40,-83 15,-24 32,-45 52,-62 20,-17 42,-30 66,-39 24,-9 51,-13 81,-13 16,0 31,1 47,4 15,3 29,8 40,15l-6 50c-3,8 -7,12 -15,12 -6,0 -15,-2 -28,-5 -12,-4 -29,-5 -49,-5 -30,0 -56,4 -78,13 -23,9 -43,22 -61,40 -18,18 -34,40 -47,66 -14,26 -26,56 -37,91l0 492 -73 0 0 -761 39 0c9,0 15,2 18,5 4,4 6,10 7,18l5 160z"/>
    <path class="fil2" d="M10847 4293l0 15c0,57 7,107 20,151 13,43 32,80 57,109 24,29 54,51 89,66 35,15 73,22 116,22 38,0 71,-4 99,-13 28,-8 52,-18 71,-28 19,-10 34,-20 45,-28 11,-8 19,-13 24,-13 7,0 12,3 15,8l20 24c-12,15 -28,30 -49,43 -20,13 -43,25 -67,34 -25,9 -51,17 -80,23 -28,6 -57,8 -85,8 -52,0 -99,-9 -142,-27 -43,-18 -80,-44 -110,-79 -31,-35 -54,-77 -71,-127 -17,-50 -25,-108 -25,-172 0,-55 8,-105 23,-151 16,-46 38,-86 67,-119 29,-33 65,-59 108,-78 43,-19 91,-28 145,-28 43,0 83,7 119,22 37,15 69,36 96,65 27,28 48,63 64,104 16,41 23,89 23,142 0,11 -2,19 -5,23 -3,4 -8,6 -15,6l-553 0zm508 -47l0 0c0,-41 -6,-77 -17,-110 -11,-32 -28,-60 -49,-82 -21,-22 -46,-40 -75,-52 -29,-12 -61,-18 -95,-18 -39,0 -74,6 -105,18 -31,12 -58,30 -81,53 -23,23 -41,50 -55,83 -14,32 -23,68 -28,108l504 0z"/>
    <path class="fil2" d="M12216 3942l-321 761 -64 0 -321 -761 57 0c7,0 13,2 18,6 5,4 8,8 9,13l251 600c8,23 14,45 18,67 5,-22 11,-44 19,-67l252 -600c3,-6 6,-10 10,-13 4,-3 10,-5 16,-5l55 0z"/>
    <path class="fil2" d="M12379 4293l0 15c0,57 7,107 20,151 13,43 32,80 57,109 24,29 54,51 89,66 35,15 73,22 116,22 38,0 71,-4 99,-13 28,-8 52,-18 71,-28 19,-10 34,-20 45,-28 11,-8 19,-13 24,-13 7,0 12,3 15,8l20 24c-12,15 -28,30 -49,43 -20,13 -43,25 -67,34 -25,9 -51,17 -79,23 -28,6 -57,8 -85,8 -52,0 -99,-9 -142,-27 -43,-18 -79,-44 -110,-79 -31,-35 -54,-77 -71,-127 -17,-50 -25,-108 -25,-172 0,-55 8,-105 23,-151 16,-46 38,-86 67,-119 29,-33 65,-59 108,-78 43,-19 91,-28 145,-28 43,0 83,7 119,22 37,15 69,36 96,65 27,28 48,63 64,104 16,41 23,89 23,142 0,11 -1,19 -5,23 -3,4 -8,6 -15,6l-553 0zm508 -47l0 0c0,-41 -6,-77 -17,-110 -12,-32 -28,-60 -49,-82 -21,-22 -46,-40 -74,-52 -29,-12 -61,-18 -95,-18 -39,0 -74,6 -106,18 -31,12 -58,30 -81,53 -23,23 -41,50 -55,83 -14,32 -23,68 -27,108l504 0z"/>
    <path class="fil2" d="M13220 4075c35,-44 76,-79 122,-106 46,-26 97,-40 154,-40 42,0 79,7 110,20 32,13 58,32 79,57 21,25 37,55 47,90 11,35 16,75 16,119l0 486 -73 0 0 -486c0,-71 -16,-127 -49,-168 -33,-41 -82,-61 -149,-61 -49,0 -96,13 -139,38 -43,25 -81,60 -115,105l0 572 -73 0 0 -761 41 0c13,0 20,6 22,19l7 114z"/>
    <path class="fil2" d="M14189 4715c-52,0 -92,-14 -120,-43 -29,-29 -43,-73 -43,-132l0 -520 -109 0c-6,0 -10,-1 -14,-5 -4,-3 -5,-7 -5,-13l0 -28 130 -9 18 -272c1,-5 3,-9 6,-12 3,-4 7,-5 13,-5l34 0 0 291 240 0 0 54 -240 0 0 516c0,21 3,39 8,54 5,15 13,27 22,37 9,10 20,17 33,21 13,5 27,7 41,7 18,0 34,-3 47,-8 13,-5 25,-11 34,-18 10,-6 18,-12 24,-18 6,-5 11,-8 14,-8 4,0 8,3 12,8l20 32c-19,21 -44,39 -74,52 -30,13 -61,20 -93,20z"/>
    <path class="fil1" d="M14994 4071c35,-43 75,-77 120,-102 45,-26 96,-38 152,-38 42,0 79,7 110,20 32,13 58,32 79,57 21,25 37,55 47,90 11,35 16,75 16,119l0 486 -73 0 0 -486c0,-71 -16,-127 -49,-168 -33,-41 -82,-61 -149,-61 -49,0 -96,13 -139,38 -43,25 -81,60 -115,105l0 572 -73 0 0 -1112 73 0 0 480z"/>
    <path class="fil1" d="M15787 4293l0 15c0,57 7,107 20,151 13,43 32,80 57,109 24,29 54,51 89,66 35,15 73,22 116,22 38,0 71,-4 99,-13 28,-8 52,-18 71,-28 19,-10 34,-20 45,-28 11,-8 19,-13 24,-13 7,0 12,3 15,8l20 24c-12,15 -28,30 -48,43 -20,13 -43,25 -67,34 -25,9 -51,17 -80,23 -28,6 -57,8 -85,8 -52,0 -99,-9 -142,-27 -43,-18 -80,-44 -110,-79 -31,-35 -54,-77 -71,-127 -17,-50 -25,-108 -25,-172 0,-55 8,-105 23,-151 16,-46 38,-86 67,-119 29,-33 65,-59 108,-78 43,-19 91,-28 145,-28 43,0 83,7 119,22 37,15 69,36 96,65 27,28 48,63 64,104 16,41 23,89 23,142 0,11 -2,19 -5,23 -3,4 -8,6 -15,6l-553 0zm508 -47l0 0c0,-41 -6,-77 -17,-110 -11,-32 -28,-60 -49,-82 -21,-22 -46,-40 -75,-52 -29,-12 -61,-18 -95,-18 -39,0 -74,6 -105,18 -31,12 -58,30 -81,53 -23,23 -41,50 -55,83 -14,32 -23,68 -28,108l504 0z"/>
    <path class="fil1" d="M16628 4126c12,-31 25,-59 40,-83 15,-24 32,-45 52,-62 20,-17 42,-30 66,-39 24,-9 51,-13 81,-13 16,0 31,1 47,4 15,3 29,8 40,15l-6 50c-3,8 -7,12 -15,12 -6,0 -15,-2 -28,-5 -12,-4 -29,-5 -49,-5 -30,0 -56,4 -78,13 -23,9 -43,22 -61,40 -18,18 -34,40 -47,66 -14,26 -26,56 -37,91l0 492 -73 0 0 -761 39 0c9,0 15,2 18,5 4,4 6,10 7,18l5 160z"/>
    <path class="fil1" d="M17082 4293l0 15c0,57 7,107 20,151 13,43 32,80 57,109 24,29 54,51 89,66 35,15 74,22 116,22 38,0 71,-4 99,-13 28,-8 52,-18 71,-28 19,-10 34,-20 45,-28 11,-8 19,-13 25,-13 7,0 12,3 15,8l20 24c-12,15 -29,30 -49,43 -20,13 -42,25 -67,34 -25,9 -51,17 -80,23 -28,6 -57,8 -85,8 -52,0 -99,-9 -142,-27 -43,-18 -80,-44 -110,-79 -31,-35 -54,-77 -71,-127 -17,-50 -25,-108 -25,-172 0,-55 8,-105 23,-151 16,-46 38,-86 67,-119 29,-33 65,-59 108,-78 42,-19 91,-28 145,-28 43,0 83,7 119,22 37,15 68,36 96,65 27,28 48,63 64,104 16,41 23,89 23,142 0,11 -2,19 -5,23 -3,4 -8,6 -15,6l-554 0zm508 -47l0 0c0,-41 -6,-77 -17,-110 -11,-32 -28,-60 -49,-82 -21,-22 -46,-40 -74,-52 -29,-12 -61,-18 -95,-18 -39,0 -74,6 -106,18 -31,12 -58,30 -81,53 -23,23 -41,50 -55,83 -14,32 -23,68 -27,108l504 0z"/>
    <path class="fil1" d="M17836 4644c0,-10 2,-19 5,-27 4,-9 9,-16 15,-23 6,-6 14,-11 22,-15 8,-4 18,-6 28,-6 10,0 19,2 28,6 9,4 16,9 23,15 6,6 11,14 15,23 4,9 6,18 6,27 0,10 -2,20 -6,28 -4,8 -9,16 -15,22 -6,6 -14,11 -23,15 -9,4 -18,5 -28,5 -20,0 -37,-7 -50,-20 -13,-13 -20,-30 -20,-50z"/>
   </g>
   <path class="fil0" d="M19689 1322c28,0 56,4 82,11 27,7 51,18 74,31 23,14 44,30 63,49 19,19 35,40 49,63 13,23 24,48 31,74 7,27 11,54 11,82 0,29 -4,56 -11,83 -7,26 -18,51 -31,74 -14,23 -30,44 -49,63 -19,19 -40,35 -63,49 -23,14 -48,24 -74,31 -27,7 -54,11 -82,11 -29,0 -56,-4 -83,-11 -26,-7 -51,-18 -74,-31 -23,-13 -44,-30 -63,-49 -19,-19 -35,-40 -49,-63 -13,-23 -24,-48 -31,-74 -7,-26 -11,-54 -11,-83 0,-28 4,-56 11,-82 7,-27 18,-51 31,-74 14,-23 30,-44 49,-63 19,-19 40,-35 63,-49 23,-13 48,-24 74,-31 26,-7 54,-11 83,-11zm0 598l0 0c26,0 52,-3 76,-10 24,-7 47,-16 68,-29 21,-12 41,-27 58,-45 17,-17 32,-37 45,-58 13,-21 22,-44 29,-69 7,-25 10,-50 10,-77 0,-40 -7,-77 -22,-112 -15,-35 -35,-65 -61,-91 -26,-26 -56,-47 -91,-62 -35,-15 -72,-23 -111,-23 -40,0 -77,8 -111,23 -35,15 -65,36 -91,62 -26,26 -46,57 -61,91 -15,35 -22,72 -22,112 0,40 7,77 22,112 15,35 35,65 61,91 26,26 56,46 91,61 35,15 72,22 111,22zm-9 -478l0 0c44,0 78,8 100,25 22,17 34,42 34,76 0,29 -9,52 -28,71 -18,18 -44,30 -78,34 6,3 12,9 17,17l123 158 -34 0c-3,0 -6,0 -8,-1 -2,-1 -4,-3 -6,-6l-117 -151c-2,-3 -5,-6 -9,-8 -3,-2 -9,-3 -17,-3l-47 0 0 168 -37 0 0 -381 106 0zm-6 185l0 0c35,0 61,-7 78,-21 17,-14 26,-34 26,-60 0,-26 -8,-46 -23,-58 -15,-12 -40,-18 -74,-18l-70 0 0 157 64 0z"/>
  </g>
 </g>
</svg>
