<?xml version="1.0" encoding="UTF-8"?>
<svg id="Livello_1" data-name="Livello 1" xmlns="http://www.w3.org/2000/svg" viewBox="0 0 605.92 272.33">
  <defs>
    <style>
      .cls-1 {
        fill: #3d3d3b;
      }

      .cls-2 {
        fill: #9c9b9b;
      }

      .cls-3 {
        fill: #d51168;
      }
    </style>
  </defs>
  <g>
    <g>
      <path class="cls-3" d="M278.78,150.71c-.93,1.13-2.04,2.1-3.34,2.93-1.3.83-2.68,1.51-4.16,2.05-1.48.53-3.01.94-4.58,1.2-1.58.27-3.14.4-4.69.4-2.96,0-5.68-.5-8.17-1.5-2.49-1-4.64-2.46-6.46-4.39-1.82-1.93-3.23-4.32-4.24-7.16-1.01-2.84-1.52-6.11-1.52-9.8,0-2.98.46-5.77,1.37-8.36.91-2.59,2.23-4.84,3.95-6.74,1.72-1.9,3.81-3.39,6.29-4.48,2.48-1.08,5.26-1.63,8.36-1.63,2.56,0,4.93.43,7.12,1.29,2.18.86,4.07,2.1,5.66,3.72,1.59,1.62,2.84,3.62,3.74,6,.9,2.38,1.35,5.09,1.35,8.13,0,1.18-.13,1.97-.38,2.36-.25.4-.73.59-1.44.59h-28.59c.08,2.7.46,5.05,1.12,7.05.66,2,1.58,3.67,2.77,5,1.18,1.34,2.59,2.34,4.22,3s3.46.99,5.49.99c1.89,0,3.51-.22,4.88-.65,1.36-.44,2.54-.91,3.53-1.41.99-.51,1.81-.98,2.47-1.41.66-.44,1.23-.65,1.71-.65.62,0,1.1.24,1.44.72l2.11,2.75ZM272.7,130.65c0-1.75-.25-3.34-.74-4.79-.49-1.45-1.21-2.7-2.15-3.76-.94-1.06-2.09-1.87-3.44-2.45-1.35-.58-2.89-.87-4.6-.87-3.6,0-6.46,1.05-8.55,3.15-2.1,2.1-3.4,5-3.91,8.72h23.4Z"/>
      <path class="cls-3" d="M323.25,156.71h-7.22c-.62,0-1.11-.16-1.46-.49-.35-.32-.64-.68-.87-1.08l-10.77-16.77c-.11.39-.23.78-.36,1.16-.13.38-.3.73-.53,1.04l-9.97,14.57c-.28.39-.58.75-.91,1.08-.32.32-.77.49-1.33.49h-6.72l14.99-21.96-14.4-20.82h7.22c.62,0,1.07.1,1.35.3.28.2.53.48.76.85l10.52,16.05c.23-.82.58-1.6,1.06-2.37l9.21-13.51c.25-.39.53-.71.82-.95.3-.24.65-.36,1.08-.36h6.93l-14.4,20.44,14.99,22.34Z"/>
      <path class="cls-3" d="M358.05,121.53c-.23.31-.45.55-.68.72s-.53.25-.93.25c-.42,0-.89-.17-1.39-.53-.51-.35-1.13-.74-1.88-1.16-.75-.42-1.66-.81-2.75-1.16-1.08-.35-2.41-.53-3.99-.53-2.11,0-3.97.37-5.57,1.12-1.6.75-2.95,1.82-4.03,3.23-1.09,1.41-1.9,3.11-2.45,5.11-.55,2-.82,4.24-.82,6.72s.3,4.89.89,6.9c.59,2.01,1.43,3.7,2.51,5.07,1.08,1.37,2.39,2.41,3.93,3.13,1.53.72,3.26,1.08,5.17,1.08s3.34-.22,4.52-.65c1.18-.44,2.16-.92,2.94-1.46.77-.53,1.42-1.02,1.94-1.46.52-.44,1.04-.65,1.54-.65.62,0,1.1.24,1.44.72l2.11,2.75c-.93,1.15-1.98,2.14-3.17,2.96-1.18.82-2.46,1.5-3.82,2.05-1.37.55-2.8.95-4.29,1.2-1.49.25-3.01.38-4.56.38-2.68,0-5.16-.49-7.45-1.48-2.29-.99-4.29-2.41-5.98-4.29-1.69-1.87-3.01-4.17-3.97-6.9-.96-2.73-1.44-5.84-1.44-9.33,0-3.18.44-6.12,1.33-8.83.89-2.7,2.18-5.03,3.89-6.99,1.7-1.96,3.8-3.48,6.29-4.58,2.49-1.1,5.36-1.65,8.59-1.65,3.01,0,5.67.49,7.96,1.46,2.29.97,4.33,2.34,6.1,4.12l-1.98,2.7Z"/>
      <path class="cls-3" d="M402.57,150.71c-.93,1.13-2.04,2.1-3.34,2.93-1.3.83-2.68,1.51-4.16,2.05-1.48.53-3.01.94-4.58,1.2-1.58.27-3.14.4-4.69.4-2.96,0-5.68-.5-8.17-1.5-2.49-1-4.64-2.46-6.46-4.39-1.82-1.93-3.23-4.32-4.24-7.16s-1.52-6.11-1.52-9.8c0-2.98.46-5.77,1.37-8.36.91-2.59,2.23-4.84,3.95-6.74,1.72-1.9,3.81-3.39,6.29-4.48,2.48-1.08,5.26-1.63,8.36-1.63,2.56,0,4.93.43,7.12,1.29,2.18.86,4.07,2.1,5.66,3.72,1.59,1.62,2.84,3.62,3.74,6,.9,2.38,1.35,5.09,1.35,8.13,0,1.18-.13,1.97-.38,2.36-.25.4-.73.59-1.44.59h-28.59c.08,2.7.46,5.05,1.12,7.05.66,2,1.58,3.67,2.77,5,1.18,1.34,2.59,2.34,4.22,3,1.63.66,3.46.99,5.49.99,1.89,0,3.51-.22,4.88-.65,1.36-.44,2.54-.91,3.53-1.41.99-.51,1.81-.98,2.47-1.41.66-.44,1.23-.65,1.71-.65.62,0,1.1.24,1.44.72l2.11,2.75ZM396.49,130.65c0-1.75-.25-3.34-.74-4.79-.49-1.45-1.21-2.7-2.15-3.76-.94-1.06-2.09-1.87-3.44-2.45-1.35-.58-2.89-.87-4.6-.87-3.6,0-6.46,1.05-8.55,3.15-2.1,2.1-3.4,5-3.91,8.72h23.4Z"/>
      <path class="cls-3" d="M420.22,94.5v62.21h-7.52v-62.21h7.52Z"/>
      <path class="cls-3" d="M440.15,94.5v62.21h-7.52v-62.21h7.52Z"/>
      <path class="cls-3" d="M487.03,150.71c-.93,1.13-2.04,2.1-3.34,2.93-1.3.83-2.68,1.51-4.16,2.05-1.48.53-3.01.94-4.58,1.2-1.58.27-3.14.4-4.69.4-2.96,0-5.68-.5-8.17-1.5-2.49-1-4.64-2.46-6.46-4.39-1.82-1.93-3.23-4.32-4.24-7.16-1.01-2.84-1.52-6.11-1.52-9.8,0-2.98.46-5.77,1.37-8.36.91-2.59,2.23-4.84,3.95-6.74,1.72-1.9,3.81-3.39,6.29-4.48,2.48-1.08,5.26-1.63,8.36-1.63,2.56,0,4.93.43,7.12,1.29,2.18.86,4.07,2.1,5.66,3.72s2.84,3.62,3.74,6c.9,2.38,1.35,5.09,1.35,8.13,0,1.18-.13,1.97-.38,2.36-.25.4-.73.59-1.44.59h-28.59c.08,2.7.46,5.05,1.12,7.05.66,2,1.58,3.67,2.77,5,1.18,1.34,2.59,2.34,4.22,3,1.63.66,3.46.99,5.49.99,1.89,0,3.51-.22,4.88-.65,1.36-.44,2.54-.91,3.53-1.41.99-.51,1.81-.98,2.47-1.41.66-.44,1.23-.65,1.71-.65.62,0,1.1.24,1.44.72l2.11,2.75ZM480.95,130.65c0-1.75-.25-3.34-.74-4.79-.49-1.45-1.21-2.7-2.15-3.76-.94-1.06-2.09-1.87-3.44-2.45-1.35-.58-2.89-.87-4.6-.87-3.6,0-6.45,1.05-8.55,3.15-2.1,2.1-3.4,5-3.91,8.72h23.4ZM470.01,107.55c-2.17,0-3.98-.3-5.45-.91-1.46-.6-2.65-1.42-3.57-2.45-.91-1.03-1.57-2.23-1.96-3.61-.39-1.38-.59-2.84-.59-4.39h5.32c0,.93.1,1.79.3,2.6.2.8.53,1.49,1.01,2.05.48.56,1.12,1.01,1.92,1.33.8.32,1.81.49,3.02.49s2.22-.16,3.02-.49c.8-.32,1.44-.77,1.92-1.33.48-.56.82-1.25,1.01-2.05.2-.8.3-1.67.3-2.6h5.32c0,1.55-.2,3.01-.59,4.39-.4,1.38-1.05,2.58-1.96,3.61-.92,1.03-2.11,1.84-3.59,2.45-1.48.61-3.29.91-5.43.91Z"/>
      <path class="cls-3" d="M504.05,122.5c1.35-2.93,3.01-5.22,4.98-6.86,1.97-1.65,4.38-2.47,7.22-2.47.9,0,1.77.1,2.6.3.83.2,1.57.51,2.22.93l-.55,5.62c-.17.7-.59,1.06-1.27,1.06-.4,0-.97-.08-1.73-.25-.76-.17-1.62-.25-2.58-.25-1.35,0-2.56.2-3.61.59-1.06.39-2,.98-2.83,1.75-.83.77-1.58,1.73-2.24,2.87-.66,1.14-1.26,2.44-1.79,3.91v27.03h-7.56v-42.78h4.31c.82,0,1.38.16,1.69.46.31.31.52.84.63,1.6l.51,6.5Z"/>
      <path class="cls-3" d="M560.65,150.71c-.93,1.13-2.04,2.1-3.34,2.93-1.3.83-2.68,1.51-4.16,2.05-1.48.53-3.01.94-4.58,1.2-1.58.27-3.14.4-4.69.4-2.96,0-5.68-.5-8.17-1.5-2.49-1-4.64-2.46-6.46-4.39-1.82-1.93-3.23-4.32-4.24-7.16-1.01-2.84-1.52-6.11-1.52-9.8,0-2.98.46-5.77,1.37-8.36.91-2.59,2.23-4.84,3.95-6.74,1.72-1.9,3.81-3.39,6.29-4.48,2.48-1.08,5.26-1.63,8.36-1.63,2.56,0,4.93.43,7.12,1.29,2.18.86,4.07,2.1,5.66,3.72,1.59,1.62,2.84,3.62,3.74,6,.9,2.38,1.35,5.09,1.35,8.13,0,1.18-.13,1.97-.38,2.36-.25.4-.73.59-1.44.59h-28.59c.08,2.7.46,5.05,1.12,7.05.66,2,1.58,3.67,2.77,5,1.18,1.34,2.59,2.34,4.22,3,1.63.66,3.46.99,5.49.99,1.89,0,3.51-.22,4.88-.65,1.36-.44,2.54-.91,3.53-1.41.99-.51,1.81-.98,2.47-1.41.66-.44,1.23-.65,1.71-.65.62,0,1.1.24,1.44.72l2.11,2.75ZM554.56,130.65c0-1.75-.25-3.34-.74-4.79-.49-1.45-1.21-2.7-2.15-3.76-.94-1.06-2.09-1.87-3.44-2.45-1.35-.58-2.89-.87-4.6-.87-3.6,0-6.45,1.05-8.55,3.15-2.1,2.1-3.4,5-3.91,8.72h23.4Z"/>
    </g>
    <g>
      <path class="cls-2" d="M301.63,174.69l-9.79,22.5c-.07.16-.16.29-.27.4-.11.1-.27.15-.47.15h-1.16l2.99-6.65-7.2-16.39h1.35c.17,0,.31.04.41.13.1.09.17.18.21.28l5.73,13.24c.07.17.13.35.18.52s.1.36.15.54c.06-.18.12-.36.18-.54.06-.18.13-.35.2-.52l5.66-13.24c.06-.13.14-.23.24-.3.1-.07.22-.11.34-.11h1.25Z"/>
      <path class="cls-2" d="M311.39,174.42c1.22,0,2.31.21,3.28.62.96.42,1.78,1.01,2.44,1.77.66.76,1.17,1.69,1.51,2.76.35,1.08.52,2.28.52,3.62s-.17,2.54-.52,3.61c-.35,1.07-.85,1.99-1.51,2.76-.66.76-1.47,1.35-2.44,1.76-.96.41-2.06.62-3.28.62s-2.31-.21-3.28-.62c-.96-.41-1.78-1-2.45-1.76-.67-.76-1.18-1.68-1.52-2.76-.35-1.07-.52-2.28-.52-3.61s.17-2.54.52-3.62c.35-1.08.86-2,1.52-2.76.67-.76,1.48-1.35,2.45-1.77.96-.42,2.05-.62,3.28-.62ZM311.39,190.65c1.02,0,1.9-.17,2.66-.52.76-.35,1.39-.85,1.9-1.5.51-.65.89-1.43,1.14-2.35.25-.92.38-1.95.38-3.09s-.13-2.16-.38-3.08c-.25-.92-.63-1.71-1.14-2.37-.51-.66-1.14-1.16-1.9-1.52-.76-.35-1.65-.53-2.66-.53s-1.9.18-2.66.53c-.76.35-1.39.86-1.9,1.52-.51.65-.89,1.44-1.15,2.37-.26.92-.39,1.95-.39,3.08s.13,2.17.39,3.09c.26.92.64,1.7,1.15,2.35.51.65,1.14,1.15,1.9,1.5.76.35,1.64.52,2.66.52Z"/>
      <path class="cls-2" d="M336.94,174.69v17.02h-.91c-.29,0-.45-.15-.5-.44l-.15-2.53c-.79.98-1.7,1.77-2.73,2.36-1.03.59-2.18.89-3.45.89-.95,0-1.77-.15-2.48-.45-.71-.3-1.29-.72-1.76-1.28-.47-.56-.82-1.23-1.06-2.02s-.36-1.68-.36-2.67v-10.88h1.64v10.88c0,1.6.37,2.85,1.1,3.76.73.9,1.84,1.36,3.34,1.36,1.11,0,2.14-.28,3.11-.85.96-.56,1.82-1.35,2.57-2.35v-12.8h1.64Z"/>
      <path class="cls-2" d="M344.1,178.8c.26-.7.56-1.31.9-1.86.34-.54.72-1,1.16-1.38.44-.38.93-.66,1.47-.86.54-.2,1.14-.3,1.8-.3.35,0,.7.03,1.04.1.34.06.64.17.91.33l-.14,1.13c-.06.18-.17.27-.32.27-.14,0-.35-.04-.63-.12-.28-.08-.65-.12-1.1-.12-.66,0-1.25.1-1.75.3-.51.2-.96.5-1.37.9-.4.4-.76.89-1.06,1.48-.3.59-.58,1.26-.83,2.03v11.02h-1.64v-17.02h.87c.19,0,.33.04.41.12.08.08.13.22.15.41l.12,3.58Z"/>
      <path class="cls-1" d="M363.77,182.53v.32c0,1.28.15,2.4.44,3.37.3.97.72,1.78,1.27,2.44.55.66,1.21,1.15,1.98,1.48.78.33,1.64.5,2.6.5.86,0,1.6-.09,2.22-.28.63-.19,1.15-.4,1.58-.63.43-.23.77-.44,1.02-.63.25-.19.43-.28.55-.28.15,0,.26.06.34.17l.44.55c-.27.34-.64.66-1.09.96-.45.3-.95.55-1.5.76-.55.21-1.15.38-1.78.51-.63.13-1.27.19-1.91.19-1.16,0-2.22-.2-3.18-.61-.96-.4-1.78-.99-2.46-1.77-.69-.78-1.21-1.72-1.58-2.85-.37-1.12-.56-2.41-.56-3.86,0-1.22.17-2.35.52-3.38.35-1.03.85-1.92,1.5-2.67.66-.75,1.46-1.33,2.41-1.75.95-.42,2.03-.63,3.24-.63.96,0,1.85.16,2.67.5s1.53.81,2.14,1.45c.61.63,1.08,1.41,1.43,2.33.35.92.52,1.98.52,3.18,0,.25-.03.42-.1.51-.07.09-.18.14-.34.14h-12.39ZM375.13,181.48c0-.91-.13-1.73-.39-2.46-.26-.72-.62-1.34-1.09-1.84-.47-.5-1.02-.89-1.67-1.15-.65-.27-1.36-.4-2.13-.4-.88,0-1.67.14-2.36.41-.7.27-1.3.67-1.8,1.18s-.92,1.13-1.22,1.85c-.31.72-.51,1.52-.62,2.41h11.27Z"/>
      <path class="cls-1" d="M394.41,174.69l-7.18,17.02h-1.44l-7.18-17.02h1.28c.16,0,.29.04.39.13.1.09.17.18.21.28l5.63,13.43c.17.5.31,1,.41,1.49.1-.49.24-.99.43-1.49l5.64-13.43c.06-.13.13-.23.23-.3s.21-.11.35-.11h1.23Z"/>
      <path class="cls-1" d="M398.07,182.53v.32c0,1.28.15,2.4.45,3.37.3.97.72,1.78,1.27,2.44.55.66,1.21,1.15,1.98,1.48.77.33,1.64.5,2.6.5.86,0,1.6-.09,2.22-.28.63-.19,1.16-.4,1.58-.63.43-.23.77-.44,1.02-.63.25-.19.43-.28.55-.28.15,0,.26.06.34.17l.44.55c-.27.34-.64.66-1.09.96-.45.3-.95.55-1.51.76-.55.21-1.15.38-1.78.51-.63.13-1.27.19-1.91.19-1.16,0-2.22-.2-3.18-.61-.96-.4-1.78-.99-2.46-1.77-.68-.78-1.21-1.72-1.58-2.85-.37-1.12-.56-2.41-.56-3.86,0-1.22.17-2.35.52-3.38.35-1.03.85-1.92,1.5-2.67.66-.75,1.46-1.33,2.41-1.75.95-.42,2.03-.63,3.24-.63.96,0,1.85.16,2.67.5s1.53.81,2.14,1.45c.61.63,1.08,1.41,1.43,2.33.35.92.52,1.98.52,3.18,0,.25-.04.42-.1.51-.07.09-.18.14-.34.14h-12.39ZM409.43,181.48c0-.91-.13-1.73-.38-2.46-.26-.72-.62-1.34-1.09-1.84-.47-.5-1.02-.89-1.67-1.15-.64-.27-1.35-.4-2.13-.4-.88,0-1.67.14-2.36.41-.7.27-1.3.67-1.81,1.18-.51.51-.92,1.13-1.22,1.85-.31.72-.51,1.52-.62,2.41h11.27Z"/>
      <path class="cls-1" d="M416.89,177.67c.79-.98,1.7-1.77,2.73-2.36,1.03-.59,2.18-.89,3.45-.89.93,0,1.76.15,2.47.44.71.3,1.3.72,1.77,1.28.47.56.82,1.23,1.06,2.02.24.79.36,1.68.36,2.67v10.88h-1.64v-10.88c0-1.6-.36-2.85-1.09-3.76-.73-.91-1.84-1.36-3.34-1.36-1.11,0-2.14.28-3.11.85-.96.56-1.82,1.35-2.57,2.35v12.8h-1.64v-17.02h.91c.29,0,.45.14.5.43l.15,2.55Z"/>
      <path class="cls-1" d="M438.58,191.99c-1.15,0-2.05-.32-2.69-.96-.64-.64-.97-1.63-.97-2.96v-11.63h-2.45c-.13,0-.23-.04-.31-.1-.08-.07-.12-.17-.12-.29v-.63l2.91-.2.41-6.09c.02-.1.07-.19.14-.27.07-.08.17-.12.29-.12h.77v6.5h5.37v1.22h-5.37v11.55c0,.47.06.87.18,1.21.12.34.29.61.5.83.21.22.46.38.74.48.29.1.59.15.92.15.41,0,.76-.06,1.06-.18.3-.12.55-.25.77-.39.22-.14.39-.27.53-.39.14-.12.25-.18.33-.18.09,0,.18.06.27.17l.44.72c-.43.48-.98.86-1.65,1.15-.67.29-1.36.44-2.08.44Z"/>
      <path class="cls-2" d="M456.58,177.57c.79-.96,1.69-1.72,2.69-2.29,1.01-.57,2.14-.86,3.4-.86.94,0,1.76.15,2.47.44.71.3,1.3.72,1.77,1.28s.82,1.23,1.06,2.02c.24.79.36,1.68.36,2.67v10.88h-1.64v-10.88c0-1.6-.37-2.85-1.1-3.76-.73-.91-1.84-1.36-3.34-1.36-1.11,0-2.14.28-3.11.85-.96.56-1.82,1.35-2.57,2.35v12.8h-1.64v-24.89h1.64v10.74Z"/>
      <path class="cls-2" d="M474.34,182.53v.32c0,1.28.15,2.4.45,3.37.3.97.72,1.78,1.27,2.44.55.66,1.21,1.15,1.98,1.48.77.33,1.64.5,2.6.5.86,0,1.6-.09,2.22-.28.63-.19,1.16-.4,1.58-.63.43-.23.77-.44,1.02-.63.25-.19.43-.28.55-.28.15,0,.26.06.34.17l.44.55c-.27.34-.64.66-1.09.96s-.95.55-1.51.76c-.55.21-1.15.38-1.78.51-.63.13-1.27.19-1.91.19-1.16,0-2.22-.2-3.18-.61-.96-.4-1.78-.99-2.46-1.77-.68-.78-1.21-1.72-1.58-2.85-.37-1.12-.56-2.41-.56-3.86,0-1.22.17-2.35.52-3.38.35-1.03.85-1.92,1.5-2.67.66-.75,1.46-1.33,2.41-1.75.95-.42,2.03-.63,3.24-.63.96,0,1.85.16,2.67.5.82.33,1.53.81,2.14,1.45.61.63,1.08,1.41,1.43,2.33.35.92.52,1.98.52,3.18,0,.25-.04.42-.1.51-.07.09-.18.14-.34.14h-12.39ZM485.7,181.48c0-.91-.13-1.73-.38-2.46-.26-.72-.62-1.34-1.09-1.84-.47-.5-1.02-.89-1.67-1.15-.64-.27-1.35-.4-2.13-.4-.88,0-1.67.14-2.36.41-.7.27-1.3.67-1.81,1.18-.51.51-.92,1.13-1.22,1.85-.31.72-.51,1.52-.62,2.41h11.27Z"/>
      <path class="cls-2" d="M493.16,178.8c.26-.7.56-1.31.9-1.86.34-.54.72-1,1.16-1.38.44-.38.93-.66,1.47-.86.54-.2,1.14-.3,1.8-.3.35,0,.7.03,1.04.1.34.06.64.17.91.33l-.14,1.13c-.06.18-.17.27-.32.27-.14,0-.35-.04-.63-.12-.28-.08-.65-.12-1.1-.12-.66,0-1.25.1-1.75.3-.51.2-.96.5-1.37.9-.4.4-.76.89-1.06,1.48-.3.59-.58,1.26-.83,2.03v11.02h-1.64v-17.02h.87c.19,0,.33.04.41.12.08.08.13.22.15.41l.12,3.58Z"/>
      <path class="cls-2" d="M503.32,182.53v.32c0,1.28.15,2.4.44,3.37.3.97.72,1.78,1.27,2.44.55.66,1.21,1.15,1.98,1.48.78.33,1.64.5,2.6.5.86,0,1.6-.09,2.22-.28.63-.19,1.16-.4,1.58-.63.43-.23.77-.44,1.02-.63.25-.19.43-.28.55-.28.15,0,.26.06.34.17l.44.55c-.27.34-.64.66-1.09.96-.45.3-.95.55-1.5.76-.55.21-1.15.38-1.78.51-.63.13-1.27.19-1.91.19-1.16,0-2.22-.2-3.18-.61-.96-.4-1.78-.99-2.46-1.77-.69-.78-1.21-1.72-1.58-2.85-.37-1.12-.56-2.41-.56-3.86,0-1.22.17-2.35.52-3.38.35-1.03.85-1.92,1.5-2.67.66-.75,1.46-1.33,2.41-1.75.95-.42,2.03-.63,3.24-.63.96,0,1.85.16,2.67.5.82.33,1.53.81,2.14,1.45.61.63,1.08,1.41,1.43,2.33.35.92.52,1.98.52,3.18,0,.25-.03.42-.1.51-.07.09-.18.14-.34.14h-12.39ZM514.68,181.48c0-.91-.13-1.73-.39-2.46-.26-.72-.62-1.34-1.09-1.84-.47-.5-1.02-.89-1.67-1.15-.65-.27-1.36-.4-2.13-.4-.88,0-1.67.14-2.36.41-.7.27-1.3.67-1.8,1.18-.51.51-.92,1.13-1.22,1.85-.31.72-.51,1.52-.62,2.41h11.27Z"/>
    </g>
  </g>
  <g>
    <path class="cls-3" d="M554.32,53.1c.78,0,1.52.1,2.25.31.72.2,1.4.49,2.02.86.63.37,1.2.81,1.71,1.33.52.52.96,1.09,1.33,1.71.37.63.65,1.3.86,2.03.2.72.31,1.47.31,2.25s-.1,1.53-.31,2.25c-.2.72-.49,1.39-.86,2.02-.37.63-.81,1.2-1.33,1.71-.52.52-1.09.96-1.71,1.33-.63.37-1.3.65-2.02.86-.72.2-1.47.31-2.25.31s-1.53-.1-2.25-.31c-.72-.2-1.39-.49-2.02-.86-.63-.37-1.2-.81-1.71-1.33-.52-.52-.96-1.09-1.33-1.71-.37-.62-.65-1.3-.86-2.02-.2-.72-.31-1.47-.31-2.25s.1-1.52.31-2.25c.2-.72.49-1.4.86-2.03.37-.63.81-1.2,1.33-1.71.52-.52,1.09-.96,1.71-1.33.63-.37,1.3-.65,2.02-.86.72-.2,1.47-.31,2.25-.31ZM554.32,69.4c.72,0,1.41-.09,2.08-.28.66-.18,1.29-.45,1.87-.79.58-.34,1.11-.75,1.58-1.22s.88-1,1.22-1.58c.34-.58.6-1.2.79-1.87.18-.67.28-1.37.28-2.09,0-1.09-.2-2.11-.61-3.06-.41-.95-.96-1.78-1.67-2.5-.71-.71-1.54-1.27-2.48-1.68-.95-.41-1.96-.62-3.04-.62s-2.09.21-3.03.62c-.94.41-1.77.97-2.47,1.68-.7.71-1.26,1.54-1.66,2.5-.4.95-.6,1.97-.6,3.06s.2,2.11.6,3.06c.4.95.96,1.78,1.66,2.49.7.71,1.53,1.27,2.47,1.67.94.41,1.96.61,3.03.61ZM554.07,56.37c1.21,0,2.11.23,2.72.68.61.45.92,1.14.92,2.06,0,.78-.25,1.42-.75,1.92-.5.5-1.21.81-2.12.94.16.09.32.25.46.47l3.35,4.32h-.93c-.09,0-.16-.01-.21-.04-.05-.02-.1-.07-.15-.15l-3.18-4.12c-.06-.09-.14-.15-.23-.21-.09-.05-.25-.08-.47-.08h-1.29v4.59h-1v-10.39h2.9ZM553.91,61.42c.95,0,1.65-.19,2.12-.57.46-.38.7-.93.7-1.64s-.21-1.24-.63-1.57c-.42-.33-1.09-.49-2.03-.49h-1.9v4.27h1.74Z"/>
    <path class="cls-3" d="M128.19,103.15c-4,9.15-4.23,19.82,0,29.45,4.23-9.62,4-20.29,0-29.45Z"/>
    <path class="cls-3" d="M98.64,120.21c5.93,8.04,15.05,13.57,25.5,14.72-6.22-8.47-15.57-13.61-25.5-14.72Z"/>
    <path class="cls-3" d="M112.59,79.04c6.73,3.89,11.99,9.33,15.6,15.61,3.62-6.28,8.88-11.73,15.6-15.62,3.82-2.21,7.85-3.76,11.94-4.68.03,0,.06-.01.08-.02-6.73-7.69-16.6-12.56-27.63-12.56s-20.9,4.87-27.63,12.56c.03,0,.06.01.08.02,4.09.92,8.11,2.47,11.94,4.68Z"/>
    <path class="cls-3" d="M126.86,135.13s.06,0,.09,0c.01-.03.03-.06.05-.08-5.85-11.65-5.86-24.85-.98-36.1-3.1-5.16-7.51-9.63-13.09-12.85-5.41-3.12-11.28-4.71-17.12-4.9-2.75,5.15-4.32,11.03-4.32,17.27s1.67,12.5,4.58,17.76c12.18,1.39,23.61,8.01,30.77,18.9Z"/>
    <path class="cls-3" d="M130.36,98.95c4.88,11.25,4.87,24.45-.98,36.1.01.03.03.06.05.08.03,0,.06,0,.09,0,7.16-10.89,18.59-17.5,30.77-18.9,2.92-5.26,4.58-11.32,4.58-17.76s-1.56-12.12-4.32-17.27c-5.83.19-11.71,1.77-17.12,4.9-5.58,3.22-9.99,7.69-13.09,12.85Z"/>
    <path class="cls-3" d="M157.74,120.21c-9.93,1.11-19.28,6.25-25.5,14.72,10.45-1.15,19.57-6.68,25.5-14.72Z"/>
    <path class="cls-3" d="M86.26,73.62c1.36-.16,2.72-.26,4.09-.29.31,0,.62.01.92.01.15-.27.29-.54.45-.81.71-1.17,1.48-2.31,2.3-3.4,4.09-5.47,9.47-9.93,15.68-12.92.66-.32,1.33-.62,2.01-.9-18.23,3.64-34.3,13.22-46.15,26.62.55-.41,1.1-.81,1.67-1.2,5.7-3.88,12.25-6.31,19.03-7.12Z"/>
    <path class="cls-3" d="M162.36,69.13c.82,1.09,1.59,2.23,2.3,3.4.16.26.3.54.45.81.31,0,.62-.02.92-.01,1.37.03,2.74.13,4.09.29,6.78.81,13.33,3.24,19.03,7.12.56.38,1.12.78,1.67,1.2-11.85-13.4-27.93-22.98-46.15-26.62.68.28,1.35.58,2,.9,6.21,2.99,11.59,7.45,15.68,12.92Z"/>
    <path class="cls-3" d="M204.29,132.79c-.54,1.26-1.14,2.49-1.8,3.69-.15.27-.32.53-.47.79.15.27.33.52.47.79.66,1.2,1.26,2.43,1.8,3.69,2.69,6.28,3.86,13.16,3.35,20.04-.05.71-.13,1.42-.21,2.13,2.82-8.37,4.37-17.33,4.37-26.65s-1.55-18.28-4.37-26.65c.09.71.16,1.42.21,2.13.51,6.88-.66,13.76-3.35,20.04Z"/>
    <path class="cls-3" d="M170.12,200.93c-1.36.16-2.72.26-4.09.29-.31,0-.62-.01-.92-.01-.15.27-.29.54-.45.81-.71,1.17-1.48,2.31-2.3,3.4-4.09,5.47-9.47,9.93-15.68,12.92-.66.32-1.33.62-2,.9,18.23-3.64,34.3-13.22,46.15-26.62-.55.41-1.1.81-1.67,1.2-5.7,3.88-12.25,6.31-19.03,7.12Z"/>
    <path class="cls-3" d="M94.03,205.41c-.82-1.09-1.59-2.23-2.3-3.4-.16-.26-.3-.54-.45-.81-.31,0-.62.02-.92.01-1.37-.03-2.74-.13-4.09-.29-6.78-.81-13.33-3.24-19.03-7.12-.56-.38-1.12-.78-1.67-1.2,11.85,13.4,27.93,22.98,46.15,26.62-.68-.28-1.35-.58-2.01-.9-6.21-2.99-11.59-7.45-15.68-12.92Z"/>
    <path class="cls-3" d="M52.1,141.76c.54-1.26,1.14-2.49,1.8-3.69.15-.27.32-.53.47-.79-.15-.27-.33-.52-.47-.79-.66-1.2-1.26-2.43-1.8-3.69-2.69-6.28-3.86-13.16-3.35-20.04.05-.71.13-1.42.21-2.13-2.82,8.37-4.37,17.33-4.37,26.65s1.55,18.28,4.37,26.65c-.09-.71-.16-1.42-.21-2.13-.51-6.88.66-13.76,3.35-20.04Z"/>
    <path class="cls-3" d="M128.19,171.4c4-9.15,4.23-19.82,0-29.45-4.23,9.62-4,20.29,0,29.45Z"/>
    <path class="cls-3" d="M157.74,154.34c-5.93-8.04-15.05-13.57-25.5-14.72,6.22,8.47,15.57,13.61,25.5,14.72Z"/>
    <path class="cls-3" d="M192.94,137.27c-3.08-4.96-7.39-9.25-12.8-12.37-5.58-3.22-11.66-4.81-17.67-4.91-7.3,9.85-18.74,16.44-31.75,17.2-.02.03-.03.05-.05.08.02.03.03.05.05.08,13.01.76,24.45,7.35,31.75,17.2,6.02-.1,12.09-1.69,17.67-4.91,5.41-3.12,9.72-7.42,12.8-12.37Z"/>
    <path class="cls-3" d="M196.45,144.88c-2.85,3.08-6.2,5.79-10.02,8-6.73,3.89-14.08,5.72-21.33,5.71,3.63,6.27,5.72,13.55,5.72,21.32,0,4.41-.67,8.67-1.92,12.68,0,.03-.02.05-.03.08,10.03-1.98,19.18-8.1,24.69-17.64,5.51-9.54,6.24-20.53,2.94-30.2-.02.02-.04.04-.06.06Z"/>
    <path class="cls-3" d="M129.52,139.42s-.06,0-.09,0c-.01.03-.03.06-.05.08,5.85,11.65,5.86,24.85.98,36.1,3.1,5.16,7.51,9.63,13.09,12.85,5.41,3.12,11.28,4.71,17.12,4.9,2.75-5.15,4.32-11.03,4.32-17.27s-1.67-12.5-4.58-17.76c-12.18-1.39-23.61-8.01-30.77-18.9Z"/>
    <path class="cls-3" d="M168.88,81.88s.02.05.03.08c1.25,4,1.92,8.26,1.92,12.68,0,7.77-2.09,15.05-5.72,21.32,7.25,0,14.6,1.82,21.33,5.71,3.82,2.21,7.18,4.92,10.02,8,.02.02.04.04.06.06,3.3-9.67,2.57-20.66-2.94-30.2-5.51-9.54-14.66-15.67-24.69-17.64Z"/>
    <path class="cls-3" d="M59.93,129.67c2.85-3.08,6.2-5.79,10.02-8,6.73-3.89,14.08-5.72,21.33-5.71-3.63-6.27-5.72-13.55-5.72-21.32,0-4.41.67-8.67,1.92-12.68,0-.03.02-.05.03-.08-10.03,1.98-19.18,8.1-24.69,17.64-5.51,9.54-6.24,20.53-2.94,30.2.02-.02.04-.04.06-.06Z"/>
    <path class="cls-3" d="M143.8,195.51c-6.73-3.89-11.99-9.33-15.6-15.62-3.62,6.28-8.88,11.73-15.6,15.62-3.82,2.21-7.85,3.76-11.94,4.68-.03,0-.06.01-.08.02,6.73,7.69,16.6,12.56,27.63,12.56s20.9-4.87,27.63-12.56c-.03,0-.06-.01-.08-.02-4.09-.92-8.11-2.47-11.94-4.68Z"/>
    <path class="cls-3" d="M59.93,144.88s-.04-.04-.06-.06c-3.3,9.67-2.57,20.66,2.94,30.2,5.51,9.54,14.66,15.67,24.69,17.64,0-.03-.02-.05-.03-.08-1.25-4-1.92-8.26-1.92-12.68,0-7.77,2.09-15.05,5.72-21.32-7.25,0-14.6-1.82-21.33-5.71-3.82-2.21-7.18-4.92-10.02-8Z"/>
    <path class="cls-3" d="M124.14,139.61c-10.45,1.15-19.57,6.68-25.5,14.72,9.93-1.11,19.28-6.25,25.5-14.72Z"/>
    <path class="cls-3" d="M125.67,137.35s.03-.05.05-.08c-.02-.03-.03-.05-.05-.08-13.01-.76-24.45-7.35-31.75-17.2-6.02.1-12.09,1.69-17.67,4.91-5.41,3.12-9.72,7.42-12.8,12.37,3.08,4.96,7.39,9.25,12.8,12.37,5.58,3.22,11.66,4.81,17.67,4.91,7.3-9.85,18.74-16.44,31.75-17.2Z"/>
    <path class="cls-3" d="M126.02,175.6c-4.88-11.25-4.87-24.45.98-36.1-.01-.03-.03-.06-.05-.08-.03,0-.06,0-.09,0-7.16,10.89-18.59,17.5-30.77,18.9-2.92,5.26-4.58,11.32-4.58,17.76s1.56,12.12,4.32,17.27c5.83-.19,11.71-1.77,17.12-4.9,5.58-3.22,9.99-7.69,13.09-12.85Z"/>
  </g>
</svg>