<?xml version="1.0" encoding="UTF-8"?>
<svg id="Livello_1" data-name="Livello 1" xmlns="http://www.w3.org/2000/svg" xmlns:xlink="http://www.w3.org/1999/xlink" viewBox="0 0 437.93 229.21">
  <defs>
    <style>
      .cls-1 {
        fill: url(#linear-gradient-2);
      }

      .cls-2 {
        fill: #c6c5c5;
      }

      .cls-3 {
        fill: url(#linear-gradient);
      }

      .cls-4 {
        fill: #24272a;
      }
    </style>
    <linearGradient id="linear-gradient" x1="263.34" y1="51.05" x2="486.17" y2="169.77" gradientUnits="userSpaceOnUse">
      <stop offset="0" stop-color="#1e5da8"/>
      <stop offset=".22" stop-color="#2b78ac"/>
      <stop offset=".55" stop-color="#3d9cb3"/>
      <stop offset=".83" stop-color="#48b2b7"/>
      <stop offset="1" stop-color="#4dbbb9"/>
    </linearGradient>
    <linearGradient id="linear-gradient-2" x1="39.75" y1="-16.48" x2="198.06" y2="250.23" gradientUnits="userSpaceOnUse">
      <stop offset="0" stop-color="#1e5da8"/>
      <stop offset=".48" stop-color="#218eb4"/>
      <stop offset=".84" stop-color="#24afbc"/>
    </linearGradient>
  </defs>
  <g>
    <path class="cls-2" d="M233.78,109.59h15.66l6.7,24.7h.26l6.96-24.7h14.96v62.02h-10.87v-43.58h-.17l-6.96,26.44h-8.44l-7.13-26.36h-.17v43.49h-10.79v-62.02Z"/>
    <path class="cls-2" d="M285.71,109.59h29.83v10.35h-17.66v14.61h14v10.44h-14v16.09h17.74v10.52h-29.92v-62.02Z"/>
    <path class="cls-2" d="M322.07,109.59h17.92c9.48,0,16.96,4.87,16.96,14.96v31.31c0,10.79-7.48,15.74-17.05,15.74h-17.83v-62.02ZM338.86,161.08c4.18,0,5.65-2.96,5.65-5.92v-29.49c0-3.22-1.83-5.65-5.83-5.65h-4.44v41.06h4.61Z"/>
    <path class="cls-2" d="M363.83,109.59h12.26v62.02h-12.26v-62.02Z"/>
    <path class="cls-2" d="M394.19,109.5h16.7l12.09,62.1h-12.44l-2.52-13.92h-12.61l-2.52,13.92h-11.31l12.61-62.1ZM406.02,147.77l-4.09-24.44h-.26l-4.26,24.44h8.61Z"/>
  </g>
  <path class="cls-3" d="M233.78,47.71h15.83c8.57,0,12.82,5.64,12.82,15.97s-4.03,17.22-13.19,17.22h-5.13v19.05h-10.33v-52.24ZM247.7,72.48c3.08,0,4.62-2.78,4.62-8.57,0-5.13-1.32-7.62-4.54-7.62h-3.66v16.19h3.59ZM273.5,47.64h14.07l10.19,52.32h-10.48l-2.13-11.72h-10.62l-2.12,11.72h-9.52l10.62-52.32ZM283.46,79.88l-3.44-20.59h-.22l-3.59,20.59h7.25ZM302.37,47.71h15.09c7.99,0,14.29,4.1,14.29,12.6v26.38c0,9.08-6.3,13.26-14.36,13.26h-15.02v-52.24ZM316.51,91.09c3.52,0,4.76-2.49,4.76-4.98v-24.84c0-2.71-1.54-4.76-4.91-4.76h-3.74v34.58h3.88ZM337.55,47.71h25.13v8.72h-14.87v12.31h11.8v8.79h-11.8v13.56h14.95v8.87h-25.2v-52.24ZM368.18,47.71h10.26v43.38h14.95v8.87h-25.2v-52.24Z"/>
  <g>
    <path class="cls-4" d="M233.78,198.97v-12.87c0-2.68,1.72-4.55,4.7-4.55s4.37,1.81,4.37,3.92v2.44h-1.4v-2.08c0-1.72-.95-2.94-3-2.94-2.29,0-3.09,1.52-3.09,3.3v12.49c0,2.2,1.22,3.27,3.15,3.27s2.94-1.31,2.94-2.89v-2.14h1.4v2.23c0,2.44-1.61,4.19-4.34,4.19-2.91,0-4.73-1.61-4.73-4.37Z"/>
    <path class="cls-4" d="M249.36,198.67v-12.46c0-3.03,2.02-4.67,4.76-4.67s4.64,1.4,4.64,4.34v12.64c0,3.21-1.99,4.82-4.76,4.82s-4.64-1.58-4.64-4.67ZM257.18,198.67v-12.73c0-1.78-1.1-3.03-3.15-3.03s-3.06,1.46-3.06,3.15v12.64c0,1.72,1.01,3.21,3.12,3.21s3.09-1.55,3.09-3.24Z"/>
    <path class="cls-4" d="M265.8,181.87h1.75l3.69,9.51h.06l3.69-9.51h1.72v21.2h-1.46v-17.78h-.06l-3.45,8.68h-1.07l-3.39-8.65h-.06v17.75h-1.43v-21.2Z"/>
    <path class="cls-4" d="M284.11,181.87h1.75l3.69,9.51h.06l3.69-9.51h1.72v21.2h-1.46v-17.78h-.06l-3.45,8.68h-1.07l-3.39-8.65h-.06v17.75h-1.43v-21.2Z"/>
    <path class="cls-4" d="M302.3,198.91v-17.04h1.58v16.74c0,2.35,1.4,3.33,3.03,3.33,2.11,0,3-1.43,2.94-3.27v-16.8h1.49v16.83c.03,2.83-1.73,4.67-4.55,4.67-2.53,0-4.49-1.43-4.49-4.46Z"/>
    <path class="cls-4" d="M318.65,181.87h1.81l5.92,16.8h.06v-16.8h1.37v21.2h-1.52l-6.18-18.05h-.06v18.05h-1.4v-21.2Z"/>
    <path class="cls-4" d="M335.2,181.87h1.58v21.2h-1.58v-21.2Z"/>
    <path class="cls-4" d="M343.82,198.97v-12.87c0-2.68,1.72-4.55,4.7-4.55s4.37,1.81,4.37,3.92v2.44h-1.4v-2.08c0-1.72-.95-2.94-3-2.94-2.29,0-3.09,1.52-3.09,3.3v12.49c0,2.2,1.22,3.27,3.15,3.27s2.94-1.31,2.94-2.89v-2.14h1.4v2.23c0,2.44-1.61,4.19-4.34,4.19-2.91,0-4.73-1.61-4.73-4.37Z"/>
    <path class="cls-4" d="M362.79,181.81h2.05l4.31,21.26h-1.58l-1.4-7.11h-4.88l-1.37,7.11h-1.49l4.34-21.26ZM365.91,194.63l-2.11-10.97h-.09l-2.14,10.97h4.34Z"/>
    <path class="cls-4" d="M377.06,183.24h-4.07v-1.37h9.66v1.37h-4.04v19.83h-1.55v-19.83Z"/>
    <path class="cls-4" d="M388.8,181.87h1.58v21.2h-1.58v-21.2Z"/>
    <path class="cls-4" d="M397.42,198.67v-12.46c0-3.03,2.02-4.67,4.76-4.67s4.64,1.4,4.64,4.34v12.64c0,3.21-1.99,4.82-4.76,4.82s-4.64-1.58-4.64-4.67ZM405.24,198.67v-12.73c0-1.78-1.1-3.03-3.15-3.03s-3.06,1.46-3.06,3.15v12.64c0,1.72,1.01,3.21,3.12,3.21s3.09-1.55,3.09-3.24Z"/>
    <path class="cls-4" d="M413.85,181.87h1.81l5.92,16.8h.06v-16.8h1.37v21.2h-1.52l-6.18-18.05h-.06v18.05h-1.4v-21.2Z"/>
  </g>
  <path class="cls-1" d="M101.74,22.4c-1.21-.34-2.42-.58-3.62-.71-2.4-.27-4.78-.12-6.96.48-2.21.6-4.22,1.66-5.89,3.21-1.7,1.57-2.87,3.47-3.53,5.57-.66,2.13-.8,4.44-.44,6.8.36,2.38,1.24,4.79,2.58,7.09,1.36,2.29,3.18,4.46,5.45,6.35,2.24,1.88,4.71,3.3,7.22,4.27.7.27,1.4.5,2.1.7,1.8.51,3.6.78,5.35.82,2.4.06,4.7-.32,6.76-1.13,2.03-.8,3.84-2.02,5.28-3.67,1.41-1.62,2.34-3.51,2.82-5.52.48-2,.52-4.15.12-6.31-.38-2.16-1.18-4.34-2.38-6.42-1.2-2.09-2.8-4.1-4.79-5.92-2.02-1.82-4.24-3.26-6.54-4.32-1.16-.53-2.34-.97-3.53-1.3M75.37,70.04c-4.63-1.31-9.45-1.96-14.29-1.94-5.89,0-11.81,1.03-17.39,3.06-5.76,2.1-11.16,5.3-15.8,9.62-4.77,4.45-8.25,9.64-10.39,15.21-2.19,5.68-2.98,11.7-2.37,17.66.62,6.01,2.64,11.91,6.03,17.26,3.37,5.33,8.07,10.06,13.95,13.81,4.17,2.65,8.64,4.61,13.23,5.9,1.78.5,3.59.91,5.4,1.21,6.31,1.07,12.69.95,18.76-.25,5.88-1.16,11.47-3.33,16.43-6.42,4.81-2.99,9.03-6.85,12.38-11.48.29-.4.56-.81.84-1.21.27-.42.53-.82.79-1.23.26-.41.5-.83.74-1.25.23-.41.47-.83.69-1.25l-39.44-28.88,36.42-11.89c-.57-.82-1.19-1.62-1.83-2.41-.65-.8-1.33-1.58-2.05-2.34s-1.47-1.5-2.26-2.23c-.79-.73-1.61-1.44-2.48-2.13-4.47-3.56-9.48-6.24-14.76-8.03-.85-.29-1.7-.56-2.57-.8M201.87,118.77c-.41-.12-.82-.19-1.24-.23-.61-.05-1.19-.03-1.77.08-1.09.18-2.12.64-3.04,1.37s-1.72,1.73-2.33,2.99-.98,2.66-1.11,4.11c-.13,1.46-.04,2.96.27,4.43.31,1.48.85,2.9,1.58,4.19.73,1.29,1.66,2.44,2.75,3.36,1.06.9,2.2,1.5,3.32,1.81.03,0,.05.02.08.02,1.16.31,2.31.33,3.39.07,1.09-.26,2.1-.78,2.97-1.58.88-.78,1.63-1.81,2.19-3.08.54-1.26.86-2.63.96-4.05.1-1.4-.02-2.84-.33-4.24-.32-1.4-.82-2.75-1.51-3.99-.69-1.22-1.56-2.34-2.59-3.26s-2.15-1.54-3.28-1.9c-.1-.04-.21-.07-.32-.1M172.86,137.27c-.97-.27-1.95-.49-2.93-.63l-.81,39.53-28.57-20.92c-1.85,4.18-3,8.66-3.42,13.2-.44,4.59-.14,9.22.86,13.63,1,4.44,2.71,8.61,5.05,12.27,2.34,3.66,5.31,6.77,8.82,9.1,2.32,1.54,4.72,2.64,7.17,3.33,1.51.43,3.03.69,4.54.81,3.91.31,7.78-.37,11.41-1.91,3.55-1.5,6.84-3.83,9.7-6.87,2.79-2.98,5.16-6.63,6.95-10.88,1.73-4.16,2.74-8.51,3.1-12.84.36-4.27.08-8.55-.78-12.59-.85-4.03-2.29-7.88-4.25-11.32-1.97-3.45-4.5-6.53-7.56-9.01-.93-.77-1.9-1.45-2.88-2.05-.98-.62-1.98-1.14-3-1.6-1.02-.45-2.06-.85-3.11-1.16-.09-.03-.18-.05-.26-.08M104.6,166.07c-6.02-1.7-12.93.33-17.32,5.67-5.81,7.04-5.05,17.15,1.68,22.58,1.63,1.31,3.45,2.23,5.36,2.77,6.02,1.7,12.92-.34,17.33-5.68,5.8-7.03,5.05-17.14-1.68-22.57-1.63-1.31-3.45-2.23-5.37-2.77M167.09,40.04c-1.91-.54-3.81-.89-5.7-1.04-3.9-.32-7.72.18-11.22,1.57-3.59,1.4-6.85,3.74-9.49,7.03-1.49,1.85-2.7,3.9-3.63,6.11-.96,2.23-1.62,4.61-2.02,7.1-.41,2.51-.52,5.12-.37,7.78.16,2.67.59,5.39,1.3,8.09l35.41-11.56-.89,43.76c2.5.2,4.94.05,7.26-.43,2.28-.47,4.45-1.26,6.46-2.36,1.98-1.07,3.8-2.45,5.41-4.11,1.59-1.65,2.99-3.57,4.13-5.76,1.86-3.51,2.92-7.39,3.29-11.43.36-3.98.05-8.14-.89-12.23-.92-4.09-2.46-8.15-4.57-11.97-2.12-3.85-4.82-7.49-8.1-10.7-3.31-3.26-6.91-5.81-10.61-7.62-1.9-.93-3.84-1.67-5.77-2.22"/>
</svg>