<?xml version="1.0" encoding="UTF-8"?>
<svg id="Livello_1" xmlns="http://www.w3.org/2000/svg" version="1.1" viewBox="0 0 224.59 224.59">
  <!-- Generator: Adobe Illustrator 30.4.0, SVG Export Plug-In . SVG Version: 2.1.4 Build 226)  -->
  <defs>
    <style>
      .st0 {
        fill: #e3e8d5;
      }

      .st1 {
        fill: #70706f;
      }

      .st2 {
        fill: #629630;
      }
    </style>
  </defs>
  <g>
    <path class="st2" d="M86.52,151.13c0-12.79-10.76-13.3-20.7-13.3h-3.23v27.39h4.16c10.63,0,19.77-1.3,19.77-14.09"/>
    <path class="st2" d="M119.58,20.8l-7.22-12.47-8.12,14.04c3.29-1.23,6.92-1.91,10.77-1.91,1.45,0,2.99.13,4.57.34"/>
    <path class="st2" d="M93.93,93.08l.37-.35c2.69,7.57,9.82,14.35,18.28,14.35s13.05-6.66,13.05-14.22c0-10.18-9.69-13.05-17.61-16.05-11.71-4.68-20.59-10.34-22.27-22.49l-16.2,27.97c11.32.35,19.79,3.53,24.38,10.79"/>
    <path class="st2" d="M197.24,155.34l-15.76-27.4c-3.61-2.67-7.92-4.3-12.65-4.3-17.66,0-26.37,18.91-26.37,35.22,0,11.51,4.41,23.93,13.22,30.23h25.33c5.44-4.13,9.12-10.84,9.35-18.11h-19.91v-15.66h26.79Z"/>
    <path class="st2" d="M208.87,175.55c-1.17,4.86-2.85,9.42-5.07,13.54h12.86l-7.79-13.54Z"/>
    <path class="st2" d="M169.26,106.69l-6.61-11.49-29.22-50.47h0c-3.76-4.95-8.61-8.08-15.19-8.08s-12.37,4.7-12.37,11.09c0,16.56,40.2,9.65,40.2,42.66,0,19.69-12.64,33.65-33.34,33.65-6.42,0-12.02-1.66-16.91-4.53-1.42,3.47-3.66,6.55-6.88,8.54,11.96,2.08,17.34,13.82,17.34,24.65,0,19.3-13.99,27.91-32.41,27.91h-31.06v-51.92l-34.74,60.4h123.57c-5.23-8.64-8.1-19.2-8.1-30.24,0-28.02,17.76-52.13,45.72-52.18"/>
    <path class="st2" d="M79.39,110.31c0-10.05-5.92-12.65-14.25-12.65h-2.55v25.57h2.42c9.68,0,14.39-2.74,14.39-12.91"/>
    <path class="st0" d="M66.74,165.22h-4.16v-27.39h3.23c9.94,0,20.7.51,20.7,13.3s-9.14,14.09-19.77,14.09M62.58,97.65h2.55c8.33,0,14.25,2.61,14.25,12.65s-4.71,12.91-14.39,12.91h-2.42v-25.57ZM95.82,119.5c4.88,2.87,10.49,4.53,16.91,4.53,20.71,0,33.34-13.96,33.34-33.65,0-33-40.2-26.09-40.2-42.66,0-6.39,6.05-11.09,12.37-11.09s11.43,3.13,15.19,8.09h0s-13.85-23.93-13.85-23.93c-1.58-.21-3.13-.34-4.57-.34-3.85,0-7.47.68-10.77,1.91l-18.5,31.95c1.69,12.16,10.56,17.81,22.27,22.49,7.93,3,17.62,5.87,17.62,16.05,0,7.56-4.97,14.22-13.05,14.22s-15.59-6.79-18.28-14.35l-.37.35c-4.59-7.26-13.06-10.44-24.38-10.79l-7.47,12.9-19.26,33.5v51.92h31.06c18.42,0,32.41-8.61,32.41-27.91,0-10.83-5.38-22.57-17.34-24.65,3.22-1.99,5.46-5.08,6.88-8.54"/>
    <path class="st0" d="M168.83,123.64c4.73,0,9.04,1.62,12.65,4.3l-12.22-21.25c-27.96.04-45.72,24.16-45.72,52.18,0,11.04,2.86,21.59,8.1,30.23h24.04c-8.81-6.31-13.22-18.72-13.22-30.23,0-16.3,8.71-35.22,26.37-35.22"/>
    <path class="st0" d="M197.24,155.34h-26.79v15.66h19.91c-.23,7.27-3.91,13.98-9.35,18.11h22.79c2.21-4.13,3.9-8.68,5.07-13.54l-11.62-20.22Z"/>
  </g>
  <g>
    <path class="st2" d="M13.12,206.99c-.22-.42-.61-.62-1.19-.62-.32,0-.58.09-.78.25-.2.17-.37.44-.48.83-.12.38-.2.88-.25,1.49-.05.61-.07,1.37-.07,2.26,0,.95.03,1.72.1,2.3.06.59.16,1.04.3,1.36.13.32.3.54.51.65.2.11.44.17.71.17.22,0,.43-.04.62-.11.19-.08.36-.23.5-.46.14-.23.25-.55.33-.97.08-.42.12-.96.12-1.64h2.53c0,.68-.05,1.32-.16,1.93-.11.61-.3,1.14-.59,1.6-.29.46-.69.81-1.21,1.07-.52.26-1.2.39-2.03.39-.95,0-1.7-.15-2.27-.46-.56-.3-.99-.74-1.29-1.32-.3-.57-.49-1.26-.58-2.05-.09-.8-.13-1.67-.13-2.63s.04-1.82.13-2.63c.09-.8.28-1.49.58-2.06.3-.57.73-1.02,1.29-1.34.56-.32,1.32-.48,2.27-.48s1.61.15,2.13.44c.52.29.91.66,1.17,1.11.26.45.42.94.48,1.46.06.52.1,1.01.1,1.47h-2.53c0-.91-.11-1.58-.32-1.99Z"/>
    <path class="st2" d="M17.39,208.39c.09-.8.28-1.49.58-2.06.3-.57.73-1.02,1.29-1.34.56-.32,1.32-.48,2.27-.48s1.7.16,2.27.48c.56.32.99.77,1.29,1.34.3.57.49,1.26.58,2.06.09.8.13,1.68.13,2.63s-.04,1.84-.13,2.63c-.09.8-.28,1.48-.58,2.05-.3.57-.73,1.01-1.29,1.32-.56.3-1.32.46-2.27.46s-1.7-.15-2.27-.46c-.56-.3-.99-.74-1.29-1.32-.3-.57-.49-1.26-.58-2.05-.09-.8-.13-1.67-.13-2.63s.04-1.82.13-2.63ZM19.85,213.17c.04.59.12,1.07.25,1.44.12.37.3.64.53.81.23.17.53.25.9.25s.68-.08.9-.25c.23-.17.4-.44.53-.81.12-.37.2-.85.25-1.44.04-.59.06-1.31.06-2.15s-.02-1.56-.06-2.14c-.04-.59-.12-1.06-.25-1.44-.12-.37-.3-.65-.53-.82-.23-.17-.53-.25-.9-.25s-.68.09-.9.25c-.23.17-.4.44-.53.82-.12.37-.2.85-.25,1.44-.04.59-.06,1.3-.06,2.14s.02,1.56.06,2.15Z"/>
    <path class="st2" d="M31.09,204.75l1.79,8.85h.04l1.81-8.85h3.74v12.54h-2.32v-10.01h-.04l-2.23,10.01h-1.97l-2.23-10.01h-.04v10.01h-2.32v-12.54h3.76Z"/>
    <path class="st2" d="M42.65,213.5c0,.32.02.61.06.87.04.26.12.49.23.68.11.19.26.35.46.46.19.11.44.17.73.17s.55-.06.74-.17c.19-.11.34-.26.45-.46.11-.19.19-.42.23-.68.04-.26.06-.55.06-.87v-8.74h2.53v8.74c0,.8-.11,1.45-.33,1.98-.22.52-.52.93-.9,1.24-.37.3-.8.51-1.28.61-.48.11-.98.16-1.49.16s-1.01-.05-1.49-.14c-.48-.09-.91-.28-1.28-.57-.37-.29-.67-.69-.9-1.22-.22-.53-.33-1.21-.33-2.05v-8.74h2.53v8.74Z"/>
    <path class="st2" d="M55.69,213.34h.04v-8.59h2.32v12.54h-2.88l-3.09-8.78h-.04v8.78h-2.32v-12.54h2.91l3.06,8.59Z"/>
    <path class="st2" d="M59.93,204.75h2.53v12.54h-2.53v-12.54Z"/>
    <path class="st2" d="M69.36,206.99c-.22-.42-.61-.62-1.19-.62-.32,0-.58.09-.78.25-.2.17-.37.44-.48.83-.12.38-.2.88-.25,1.49-.05.61-.07,1.37-.07,2.26,0,.95.03,1.72.1,2.3.06.59.16,1.04.3,1.36.13.32.3.54.51.65.2.11.44.17.71.17.22,0,.43-.04.62-.11.19-.08.36-.23.5-.46.14-.23.25-.55.33-.97.08-.42.12-.96.12-1.64h2.53c0,.68-.05,1.32-.16,1.93-.11.61-.3,1.14-.59,1.6-.29.46-.69.81-1.21,1.07-.52.26-1.2.39-2.03.39-.95,0-1.7-.15-2.27-.46-.56-.3-.99-.74-1.29-1.32-.3-.57-.49-1.26-.58-2.05-.09-.8-.13-1.67-.13-2.63s.04-1.82.13-2.63c.09-.8.28-1.49.58-2.06.3-.57.73-1.02,1.29-1.34.56-.32,1.32-.48,2.27-.48s1.61.15,2.13.44c.52.29.91.66,1.17,1.11.26.45.42.94.48,1.46.06.52.1,1.01.1,1.47h-2.53c0-.91-.11-1.58-.32-1.99Z"/>
    <path class="st2" d="M79.33,204.75l3.32,12.54h-2.63l-.58-2.65h-3.34l-.58,2.65h-2.63l3.32-12.54h3.13ZM78.99,212.56l-1.21-5.64h-.04l-1.21,5.64h2.46Z"/>
    <path class="st2" d="M87.69,206.82h-4.3v-2.07h7.22v1.91l-4.69,8.55h4.76v2.07h-7.6v-1.84l4.62-8.62Z"/>
    <path class="st2" d="M92.09,204.75h2.53v12.54h-2.53v-12.54Z"/>
    <path class="st2" d="M96.37,208.39c.09-.8.28-1.49.58-2.06.3-.57.73-1.02,1.29-1.34.56-.32,1.32-.48,2.27-.48s1.7.16,2.27.48c.56.32.99.77,1.29,1.34.3.57.49,1.26.58,2.06.09.8.13,1.68.13,2.63s-.04,1.84-.13,2.63c-.09.8-.28,1.48-.58,2.05-.3.57-.73,1.01-1.29,1.32-.56.3-1.32.46-2.27.46s-1.7-.15-2.27-.46c-.56-.3-.99-.74-1.29-1.32-.3-.57-.49-1.26-.58-2.05-.09-.8-.13-1.67-.13-2.63s.04-1.82.13-2.63ZM98.83,213.17c.04.59.12,1.07.25,1.44.12.37.3.64.53.81.23.17.53.25.9.25s.68-.08.9-.25c.23-.17.4-.44.53-.81.12-.37.2-.85.25-1.44.04-.59.06-1.31.06-2.15s-.02-1.56-.06-2.14c-.04-.59-.12-1.06-.25-1.44-.12-.37-.3-.65-.53-.82-.23-.17-.53-.25-.9-.25s-.68.09-.9.25c-.23.17-.4.44-.53.82-.12.37-.2.85-.25,1.44-.04.59-.06,1.3-.06,2.14s.02,1.56.06,2.15Z"/>
    <path class="st2" d="M112.23,213.34h.04v-8.59h2.32v12.54h-2.88l-3.09-8.78h-.04v8.78h-2.32v-12.54h2.91l3.06,8.59Z"/>
    <path class="st2" d="M123.35,206.82h-4.48v2.95h4.21v2.07h-4.21v3.37h4.65v2.07h-7.18v-12.54h7.01v2.07Z"/>
  </g>
  <g>
    <path class="st1" d="M131.71,212.21c.08-.36.12-.68.12-.95h2.18c0,.68-.12,1.33-.36,1.96-.24.63-.55,1.21-.92,1.75l1.65,2.32h-2.69l-.7-.97c-.32.37-.74.66-1.27.86-.53.2-1.11.3-1.75.3-.78,0-1.43-.11-1.93-.34-.5-.23-.9-.52-1.18-.89-.28-.36-.47-.76-.58-1.18-.11-.42-.16-.81-.16-1.16,0-.74.23-1.4.68-1.99.45-.59,1.07-1.13,1.85-1.62l-.44-.65c-.18-.26-.32-.49-.43-.68-.11-.2-.2-.39-.25-.56-.06-.18-.1-.35-.12-.51-.02-.16-.04-.33-.04-.51,0-.41.08-.78.24-1.1.16-.32.38-.6.66-.83.28-.23.62-.4,1.01-.53.39-.12.82-.18,1.29-.18.54,0,1,.07,1.4.2.39.13.72.32.97.56.26.24.45.52.57.83.12.32.18.66.18,1.02,0,.63-.18,1.2-.54,1.7-.36.5-.9,1.02-1.64,1.55l1.88,2.55c.13-.27.23-.59.32-.95ZM126.82,212.85c-.18.33-.27.68-.27,1.07,0,.19.04.38.11.58.08.2.19.38.33.54.15.16.33.29.55.39.22.1.47.15.76.15.67,0,1.21-.26,1.63-.79l-2.11-2.99c-.49.37-.83.73-1.01,1.05ZM128.07,208.68l.3.42.46-.39c.28-.23.48-.47.61-.69.12-.23.18-.45.18-.68,0-.34-.1-.6-.31-.78-.2-.18-.47-.27-.8-.27-.3,0-.56.09-.76.26-.2.18-.31.43-.31.76,0,.35.21.81.63,1.37Z"/>
    <path class="st1" d="M139.01,204.75l1.79,8.85h.04l1.81-8.85h3.74v12.54h-2.32v-10.01h-.04l-2.23,10.01h-1.97l-2.23-10.01h-.04v10.01h-2.32v-12.54h3.76Z"/>
    <path class="st1" d="M153.76,204.75l3.32,12.54h-2.63l-.58-2.65h-3.34l-.58,2.65h-2.63l3.32-12.54h3.13ZM153.43,212.56l-1.21-5.64h-.04l-1.21,5.64h2.46Z"/>
    <path class="st1" d="M162.63,204.75c1.05,0,1.87.27,2.46.8.59.53.88,1.34.88,2.43,0,.84-.17,1.53-.51,2.06-.34.53-.87.88-1.58,1.03v.04c.63.09,1.09.3,1.39.61.29.32.47.83.54,1.53.02.23.04.49.05.76.01.28.02.58.04.92.02.67.06,1.18.11,1.53.07.35.22.59.46.72v.11h-2.74c-.13-.18-.21-.38-.25-.61-.04-.23-.06-.47-.07-.71l-.07-2.41c-.02-.49-.15-.88-.37-1.16-.22-.28-.6-.42-1.12-.42h-1.35v5.3h-2.53v-12.54h4.67ZM161.54,210.23c.61,0,1.08-.14,1.4-.43.33-.29.49-.77.49-1.45,0-1.16-.59-1.74-1.76-1.74h-1.19v3.62h1.05Z"/>
    <path class="st1" d="M170.25,209.77h.04l3.2-5.02h2.74l-3.41,5.37,3.79,7.16h-2.84l-2.58-5.14-.93,1.42v3.72h-2.53v-12.54h2.53v5.02Z"/>
    <path class="st1" d="M184.16,206.82h-4.48v2.95h4.21v2.07h-4.21v3.37h4.65v2.07h-7.18v-12.54h7.01v2.07Z"/>
    <path class="st1" d="M192.94,206.82h-2.74v10.47h-2.53v-10.47h-2.74v-2.07h8.01v2.07Z"/>
    <path class="st1" d="M194.15,204.75h2.53v12.54h-2.53v-12.54Z"/>
    <path class="st1" d="M204.53,213.34h.04v-8.59h2.32v12.54h-2.88l-3.09-8.78h-.04v8.78h-2.32v-12.54h2.91l3.06,8.59Z"/>
    <path class="st1" d="M214.12,207.75c-.05-.25-.14-.47-.25-.68-.12-.2-.27-.37-.45-.51-.18-.13-.4-.2-.66-.2-.61,0-1.05.34-1.32,1.02-.27.68-.4,1.8-.4,3.37,0,.75.02,1.43.07,2.04.05.61.13,1.13.25,1.55.12.43.3.76.53.98.23.23.52.34.89.34.15,0,.32-.04.5-.12.18-.08.35-.2.51-.37.16-.16.29-.37.4-.62.11-.25.16-.55.16-.89v-1.28h-1.67v-1.86h4.09v6.76h-1.86v-1.16h-.04c-.3.49-.67.84-1.1,1.04-.43.2-.94.31-1.54.31-.77,0-1.4-.13-1.89-.4-.49-.27-.87-.68-1.14-1.25-.28-.56-.46-1.26-.55-2.08-.09-.83-.14-1.78-.14-2.87s.07-1.98.2-2.77c.13-.8.37-1.46.69-1.99.33-.53.76-.93,1.3-1.2.54-.27,1.21-.4,2.02-.4,1.38,0,2.38.34,2.99,1.03.61.68.91,1.67.91,2.94h-2.42c0-.23-.03-.47-.08-.72Z"/>
  </g>
</svg>