<?xml version="1.0" encoding="UTF-8"?>
<svg id="MediaOne_e_gruppo" xmlns="http://www.w3.org/2000/svg" version="1.1" viewBox="0 0 847.97 749.28">
  <!-- Generator: Adobe Illustrator 29.5.1, SVG Export Plug-In . SVG Version: 2.1.0 Build 141)  -->
  <defs>
    <style>
      .st0 {
        fill: #e5e5e5;
      }

      .st1 {
        fill: #8a8a8a;
      }
    </style>
  </defs>
  <path class="st1" d="M320.24,576.05c0-51.59-43.41-53.66-83.52-53.66h-13.03v110.48h16.8c42.87,0,79.76-5.26,79.76-56.82"/>
  <path class="st1" d="M453.63,50.3L424.51,0l-32.77,56.63c13.29-4.96,27.9-7.69,43.44-7.69,5.83,0,12.06.51,18.45,1.36"/>
  <path class="st1" d="M350.15,341.87l1.51-1.42c10.85,30.52,39.6,57.91,73.75,57.91s52.63-26.87,52.63-57.36c0-41.05-39.07-52.64-71.06-64.74-47.25-18.89-83.04-41.7-89.86-90.74l-65.34,112.84c45.67,1.41,79.85,14.23,98.36,43.51"/>
  <path class="st1" d="M766.91,593.01l-63.58-110.51c-14.58-10.78-31.95-17.33-51.04-17.33-71.24,0-106.37,76.3-106.37,142.07,0,46.44,17.78,96.53,53.32,121.97h102.18c21.96-16.65,36.78-43.73,37.71-73.04h-80.31v-63.15h108.09,0Z"/>
  <path class="st1" d="M813.8,674.57c-4.73,19.6-11.51,37.98-20.44,54.63h51.86l-31.42-54.63Z"/>
  <path class="st1" d="M654.05,396.75l-26.67-46.36-117.89-203.6v.03c-15.18-20-34.74-32.63-61.3-32.63s-49.9,18.94-49.9,44.74c0,66.82,162.17,38.94,162.17,172.08,0,79.43-50.98,135.74-134.51,135.74-25.88,0-48.51-6.7-68.2-18.29-5.73,13.99-14.77,26.42-27.75,34.47,48.26,8.4,69.96,55.77,69.96,99.46,0,77.86-56.42,112.59-130.73,112.59h-125.3v-209.43L3.81,729.2h498.47c-21.12-34.86-32.67-77.45-32.67-121.97,0-113.03,71.66-210.3,184.43-210.48"/>
  <path class="st1" d="M291.48,411.37c0-40.52-23.88-51.05-57.5-51.05h-10.29v103.14h9.76c39.05,0,58.04-11.06,58.04-52.09"/>
  <path class="st0" d="M240.48,632.87h-16.8v-110.48h13.04c40.11,0,83.52,2.07,83.52,53.66s-36.89,56.82-79.76,56.82M223.68,360.32h10.3c33.62,0,57.5,10.53,57.5,51.05s-18.99,52.09-58.04,52.09h-9.76v-103.14h0ZM357.76,448.46c19.7,11.58,42.32,18.29,68.2,18.29,83.53,0,134.51-56.31,134.51-135.74,0-133.14-162.17-105.26-162.17-172.08,0-25.79,24.4-44.74,49.9-44.74s46.11,12.63,61.29,32.63v-.03l-55.86-96.49c-6.39-.85-12.62-1.36-18.45-1.36-15.54,0-30.15,2.73-43.44,7.69l-74.61,128.88c6.81,49.04,42.61,71.85,89.85,90.74,31.99,12.11,71.06,23.69,71.06,64.75,0,30.49-20.07,57.36-52.63,57.36s-62.91-27.38-73.75-57.91l-1.5,1.42c-18.52-29.28-52.69-42.11-98.36-43.51l-30.14,52.04-77.7,135.15v209.43h125.3c74.31,0,130.73-34.72,130.73-112.58,0-43.69-21.7-91.06-69.96-99.46,12.98-8.05,22.01-20.48,27.75-34.47"/>
  <path class="st0" d="M652.29,465.16c19.09,0,36.46,6.54,51.04,17.33l-49.28-85.74c-112.78.18-184.44,97.45-184.44,210.48,0,44.52,11.55,87.11,32.67,121.97h96.96c-35.54-25.44-53.32-75.52-53.32-121.97,0-65.77,35.13-142.07,106.37-142.07"/>
  <path class="st0" d="M766.91,593.01h-108.09v63.15h80.31c-.94,29.31-15.75,56.39-37.71,73.04h91.95c8.93-16.65,15.71-35.03,20.44-54.63l-46.89-81.56h0Z"/>
</svg>