<?xml version="1.0" encoding="UTF-8"?>
<svg id="MediaOne_e_gruppo" data-name="MediaOne e gruppo" xmlns="http://www.w3.org/2000/svg" viewBox="0 0 847.97 937.41">
  <defs>
    <style>
      .cls-1 {
        fill: #e5e5e5;
      }

      .cls-2 {
        fill: #8a8a8a;
      }
    </style>
  </defs>
  <g>
    <path class="cls-2" d="M63.7,847.06h42.09v49.97c-6.07,4.44-12.53,7.67-19.38,9.67-6.85,2-14.02,3.01-21.49,3.01-9.75,0-18.62-1.53-26.61-4.59-7.99-3.06-14.83-7.29-20.52-12.68-5.69-5.39-10.08-11.78-13.16-19.18-3.09-7.39-4.63-15.42-4.63-24.09s1.46-16.94,4.39-24.34c2.93-7.39,7.11-13.77,12.55-19.14,5.44-5.36,12.03-9.53,19.74-12.51,7.72-2.98,16.34-4.47,25.88-4.47,4.93,0,9.56.41,13.89,1.22,4.33.81,8.33,1.92,11.99,3.33,3.66,1.41,7,3.09,10.03,5.04,3.03,1.95,5.74,4.06,8.13,6.34l-7.96,12.11c-1.25,1.9-2.86,3.06-4.83,3.49-1.98.43-4.1-.05-6.38-1.46-2.17-1.3-4.21-2.42-6.13-3.37-1.92-.95-3.89-1.72-5.89-2.32-2-.6-4.12-1.03-6.34-1.3-2.22-.27-4.71-.41-7.48-.41-5.15,0-9.78.91-13.89,2.72-4.12,1.82-7.63,4.38-10.52,7.68-2.9,3.3-5.13,7.27-6.7,11.9-1.57,4.63-2.36,9.79-2.36,15.48,0,6.28.87,11.86,2.6,16.74,1.73,4.88,4.18,8.99,7.35,12.35,3.17,3.36,6.96,5.92,11.38,7.68,4.41,1.76,9.3,2.64,14.67,2.64,3.3,0,6.3-.33,8.98-.97,2.68-.65,5.29-1.52,7.84-2.6v-17.96h-11.7c-1.73,0-3.09-.46-4.06-1.38-.98-.92-1.46-2.08-1.46-3.49v-15.11Z"/>
    <path class="cls-2" d="M143.82,837.14c2.6-4.55,5.59-8.13,8.98-10.73,3.38-2.6,7.27-3.9,11.66-3.9,3.79,0,6.88.89,9.26,2.68l-1.62,18.53c-.27,1.19-.72,2-1.34,2.44-.62.43-1.48.65-2.56.65-.43,0-1-.03-1.71-.08-.7-.05-1.44-.12-2.19-.2-.76-.08-1.53-.16-2.32-.24-.79-.08-1.5-.12-2.15-.12-3.68,0-6.62.98-8.82,2.93s-4.05,4.66-5.57,8.12v51.19h-25.19v-84.26h14.95c1.25,0,2.29.11,3.13.33.84.22,1.54.56,2.11,1.02.57.46,1,1.07,1.3,1.83.3.76.55,1.68.77,2.76l1.3,7.07Z"/>
    <path class="cls-2" d="M257.82,824.14v84.26h-15.6c-3.14,0-5.2-1.41-6.18-4.23l-1.46-4.88c-1.62,1.57-3.3,2.99-5.04,4.27-1.73,1.27-3.59,2.36-5.57,3.25-1.98.89-4.12,1.6-6.42,2.11-2.3.51-4.81.77-7.52.77-4.6,0-8.68-.8-12.23-2.4-3.55-1.6-6.54-3.83-8.98-6.7-2.44-2.87-4.28-6.26-5.53-10.16-1.25-3.9-1.87-8.18-1.87-12.84v-53.46h25.19v53.46c0,4.17.95,7.39,2.84,9.67,1.9,2.28,4.69,3.41,8.37,3.41,2.76,0,5.35-.58,7.76-1.75,2.41-1.16,4.75-2.75,7.03-4.75v-60.05h25.19Z"/>
    <path class="cls-2" d="M298.53,834.54c3.3-3.52,7.06-6.41,11.25-8.65,4.2-2.25,9.19-3.37,14.99-3.37,4.39,0,8.45.97,12.19,2.92,3.74,1.95,6.96,4.77,9.67,8.45,2.71,3.68,4.83,8.19,6.38,13.53,1.54,5.34,2.32,11.39,2.32,18.16,0,6.34-.88,12.19-2.64,17.55-1.76,5.36-4.23,10.02-7.39,13.98-3.17,3.95-6.96,7.04-11.38,9.26-4.42,2.22-9.3,3.33-14.67,3.33-4.39,0-8.07-.62-11.05-1.87-2.98-1.25-5.69-2.93-8.13-5.04v32.34h-25.19v-110.99h15.6c3.14,0,5.2,1.41,6.18,4.22l1.87,6.18ZM300.07,885.49c1.9,2.06,3.95,3.52,6.18,4.39,2.22.87,4.55,1.3,6.99,1.3s4.47-.46,6.42-1.38c1.95-.92,3.64-2.4,5.08-4.43,1.43-2.03,2.56-4.67,3.37-7.92s1.22-7.2,1.22-11.86-.33-8.18-.98-11.21c-.65-3.03-1.56-5.48-2.72-7.35-1.17-1.87-2.56-3.21-4.19-4.02-1.62-.81-3.44-1.22-5.44-1.22-3.68,0-6.72.68-9.1,2.03-2.38,1.36-4.66,3.33-6.83,5.93v35.75Z"/>
    <path class="cls-2" d="M391.97,834.54c3.3-3.52,7.06-6.41,11.25-8.65,4.2-2.25,9.19-3.37,14.99-3.37,4.39,0,8.45.97,12.19,2.92,3.74,1.95,6.96,4.77,9.67,8.45,2.71,3.68,4.83,8.19,6.38,13.53,1.54,5.34,2.32,11.39,2.32,18.16,0,6.34-.88,12.19-2.64,17.55-1.76,5.36-4.23,10.02-7.39,13.98-3.17,3.95-6.96,7.04-11.38,9.26-4.42,2.22-9.3,3.33-14.67,3.33-4.39,0-8.07-.62-11.05-1.87-2.98-1.25-5.69-2.93-8.13-5.04v32.34h-25.19v-110.99h15.6c3.14,0,5.2,1.41,6.18,4.22l1.87,6.18ZM393.51,885.49c1.9,2.06,3.95,3.52,6.18,4.39,2.22.87,4.55,1.3,6.99,1.3s4.47-.46,6.42-1.38c1.95-.92,3.64-2.4,5.08-4.43,1.43-2.03,2.56-4.67,3.37-7.92s1.22-7.2,1.22-11.86-.33-8.18-.98-11.21c-.65-3.03-1.56-5.48-2.72-7.35-1.17-1.87-2.56-3.21-4.19-4.02-1.62-.81-3.44-1.22-5.44-1.22-3.68,0-6.72.68-9.1,2.03-2.38,1.36-4.66,3.33-6.83,5.93v35.75Z"/>
    <path class="cls-2" d="M500.6,822.84c6.39,0,12.21,1,17.47,3.01,5.25,2,9.76,4.88,13.53,8.61,3.77,3.74,6.69,8.28,8.78,13.61,2.09,5.34,3.13,11.33,3.13,18s-1.04,12.77-3.13,18.16c-2.09,5.39-5.01,9.97-8.78,13.73-3.77,3.77-8.28,6.66-13.53,8.69-5.25,2.03-11.08,3.05-17.47,3.05s-12.31-1.02-17.59-3.05c-5.28-2.03-9.83-4.93-13.65-8.69-3.82-3.76-6.77-8.34-8.86-13.73-2.09-5.39-3.13-11.44-3.13-18.16s1.04-12.66,3.13-18c2.08-5.33,5.04-9.87,8.86-13.61,3.82-3.74,8.37-6.61,13.65-8.61,5.28-2,11.14-3.01,17.59-3.01ZM500.6,891.01c5.8,0,10.06-2.04,12.8-6.13,2.73-4.09,4.1-10.3,4.1-18.65s-1.37-14.54-4.1-18.61c-2.74-4.06-7-6.09-12.8-6.09s-10.32,2.03-13.08,6.09-4.14,10.27-4.14,18.61,1.38,14.56,4.14,18.65c2.76,4.09,7.12,6.13,13.08,6.13Z"/>
    <path class="cls-2" d="M640.2,790.02c8.18,0,15.14.76,20.88,2.28,5.74,1.52,10.43,3.66,14.06,6.42s6.27,6.12,7.92,10.08c1.65,3.96,2.48,8.37,2.48,13.25,0,2.65-.38,5.21-1.14,7.68-.76,2.47-1.95,4.77-3.58,6.91-1.62,2.14-3.71,4.1-6.26,5.89-2.55,1.79-5.61,3.33-9.18,4.63,7.8,1.9,13.57,4.96,17.31,9.18,3.74,4.22,5.61,9.7,5.61,16.41,0,5.04-.98,9.72-2.93,14.06s-4.81,8.11-8.57,11.33c-3.77,3.22-8.41,5.74-13.93,7.56-5.53,1.82-11.84,2.72-18.93,2.72h-47.29v-118.39h43.55ZM624.11,810.57v29.25h14.3c3.03,0,5.77-.22,8.21-.65s4.51-1.19,6.22-2.28c1.71-1.08,3.01-2.57,3.9-4.47.89-1.9,1.34-4.28,1.34-7.15s-.35-5.16-1.06-7.03c-.71-1.87-1.79-3.37-3.25-4.51-1.46-1.14-3.32-1.95-5.57-2.44-2.25-.49-4.92-.73-8-.73h-16.09ZM643.45,887.68c3.63,0,6.59-.46,8.9-1.38,2.3-.92,4.1-2.11,5.4-3.58,1.3-1.46,2.19-3.11,2.68-4.96.49-1.84.73-3.71.73-5.61,0-2.17-.28-4.12-.85-5.85-.57-1.73-1.54-3.2-2.93-4.39-1.38-1.19-3.21-2.11-5.48-2.76s-5.15-.97-8.61-.97h-19.18v29.5h19.34Z"/>
    <path class="cls-2" d="M753.55,842.59c-.65,1.03-1.34,1.76-2.07,2.19-.73.43-1.67.65-2.8.65s-2.38-.26-3.58-.77c-1.19-.51-2.48-1.07-3.86-1.67-1.38-.59-2.94-1.15-4.67-1.67-1.73-.51-3.71-.77-5.93-.77-3.2,0-5.65.61-7.35,1.83-1.71,1.22-2.56,2.91-2.56,5.08,0,1.57.55,2.87,1.67,3.9,1.11,1.03,2.59,1.94,4.43,2.72,1.84.79,3.93,1.53,6.26,2.23,2.33.7,4.71,1.49,7.15,2.36,2.44.87,4.82,1.88,7.15,3.05,2.33,1.17,4.41,2.6,6.26,4.31,1.84,1.71,3.32,3.78,4.43,6.22,1.11,2.44,1.67,5.36,1.67,8.78,0,4.17-.76,8.02-2.28,11.54-1.52,3.52-3.78,6.55-6.78,9.1-3.01,2.55-6.72,4.52-11.13,5.93-4.42,1.41-9.49,2.11-15.24,2.11-2.87,0-5.74-.27-8.61-.81-2.87-.54-5.65-1.27-8.33-2.19-2.68-.92-5.16-2.02-7.43-3.29-2.27-1.27-4.22-2.64-5.85-4.1l5.85-9.26c.65-1.08,1.48-1.94,2.48-2.56,1-.62,2.29-.93,3.86-.93,1.46,0,2.78.33,3.94.97,1.16.65,2.42,1.36,3.78,2.11,1.35.76,2.94,1.46,4.75,2.11,1.81.65,4.1.98,6.87.98,1.95,0,3.6-.2,4.96-.61,1.35-.41,2.44-.96,3.25-1.67.81-.7,1.41-1.49,1.79-2.36.38-.87.57-1.76.57-2.68,0-1.68-.57-3.06-1.71-4.14-1.14-1.08-2.63-2.02-4.47-2.8-1.84-.78-3.94-1.52-6.3-2.19-2.36-.68-4.75-1.45-7.19-2.32-2.44-.87-4.83-1.91-7.19-3.13s-4.46-2.76-6.3-4.63c-1.84-1.87-3.33-4.16-4.47-6.87-1.14-2.71-1.71-5.98-1.71-9.83,0-3.58.69-6.97,2.07-10.2,1.38-3.22,3.45-6.05,6.22-8.49,2.76-2.44,6.23-4.37,10.4-5.81,4.17-1.43,9.05-2.15,14.62-2.15,3.03,0,5.97.27,8.82.81,2.84.54,5.51,1.3,8,2.27,2.49.98,4.77,2.13,6.83,3.45,2.06,1.33,3.87,2.78,5.44,4.35l-5.69,8.86Z"/>
    <path class="cls-2" d="M847.97,826.74v9.18c0,1.41-.39,2.52-1.18,3.33-.79.81-2.13,1.44-4.02,1.87l-6.09,1.38c.32,1.19.58,2.41.77,3.66.19,1.25.28,2.55.28,3.9,0,4.23-.88,8.02-2.64,11.38-1.76,3.36-4.17,6.22-7.23,8.57-3.06,2.36-6.68,4.17-10.85,5.44-4.17,1.27-8.64,1.91-13.41,1.91-1.3,0-2.57-.04-3.82-.12-1.25-.08-2.47-.23-3.66-.45-1.84,1.14-2.76,2.41-2.76,3.82s.76,2.42,2.27,3.05c1.52.62,3.52,1.06,6.01,1.3,2.49.24,5.32.41,8.49.49,3.17.08,6.41.27,9.71.57,3.3.3,6.54.8,9.71,1.5,3.17.71,6,1.84,8.49,3.41,2.49,1.57,4.5,3.67,6.01,6.3,1.52,2.63,2.28,5.97,2.28,10.04,0,3.79-.92,7.5-2.76,11.13-1.84,3.63-4.55,6.85-8.13,9.67-3.57,2.82-7.96,5.08-13.16,6.78s-11.16,2.56-17.88,2.56-12.31-.62-17.1-1.87-8.78-2.88-11.94-4.92c-3.17-2.03-5.51-4.38-7.03-7.03-1.52-2.65-2.28-5.42-2.28-8.29,0-3.74,1.08-6.85,3.25-9.34,2.17-2.49,5.2-4.5,9.1-6.01-2.06-1.25-3.68-2.84-4.88-4.79-1.19-1.95-1.79-4.47-1.79-7.56,0-1.25.22-2.56.65-3.94.43-1.38,1.12-2.73,2.07-4.06.95-1.33,2.13-2.59,3.54-3.78,1.41-1.19,3.09-2.25,5.04-3.17-4.39-2.33-7.86-5.4-10.4-9.22-2.55-3.82-3.82-8.27-3.82-13.37,0-4.23.89-8.03,2.68-11.42,1.79-3.38,4.24-6.26,7.35-8.61s6.79-4.17,11.01-5.44c4.22-1.27,8.8-1.91,13.73-1.91,7.15,0,13.49,1.35,19.01,4.06h25.35ZM823.1,911.49c0-2-.89-3.45-2.68-4.35-1.79-.89-4.12-1.53-6.99-1.91-2.87-.38-6.08-.61-9.63-.69s-7.08-.28-10.6-.61c-1.57,1.08-2.86,2.29-3.86,3.62-1,1.33-1.5,2.83-1.5,4.51,0,1.19.26,2.28.77,3.25.51.98,1.42,1.81,2.72,2.52,1.3.7,3.05,1.26,5.24,1.67,2.19.41,4.97.61,8.33.61,3.63,0,6.61-.22,8.94-.65,2.33-.43,4.18-1.03,5.57-1.79,1.38-.76,2.34-1.67,2.88-2.72.54-1.06.81-2.21.81-3.45ZM803.6,861.84c4.17,0,7.19-1.04,9.06-3.13,1.87-2.08,2.8-4.78,2.8-8.08s-.93-6.09-2.8-8.04c-1.87-1.95-4.89-2.92-9.06-2.92s-7.19.97-9.06,2.92-2.8,4.63-2.8,8.04c0,1.62.23,3.12.69,4.47.46,1.35,1.18,2.53,2.15,3.53.97,1,2.21,1.79,3.7,2.36,1.49.57,3.26.85,5.32.85Z"/>
  </g>
  <g>
    <path class="cls-2" d="M320.24,576.05c0-51.59-43.41-53.66-83.52-53.66h-13.03v110.48h16.8c42.87,0,79.76-5.26,79.76-56.82"/>
    <path class="cls-2" d="M453.63,50.3L424.51,0l-32.77,56.63c13.29-4.96,27.9-7.69,43.44-7.69,5.83,0,12.06.51,18.45,1.36"/>
    <path class="cls-2" d="M350.15,341.87l1.51-1.42c10.85,30.52,39.6,57.91,73.75,57.91s52.63-26.87,52.63-57.36c0-41.05-39.07-52.64-71.06-64.74-47.25-18.89-83.04-41.7-89.86-90.74l-65.34,112.84c45.67,1.41,79.85,14.23,98.36,43.51"/>
    <path class="cls-2" d="M766.91,593.01l-63.58-110.51c-14.58-10.78-31.95-17.33-51.04-17.33-71.24,0-106.37,76.3-106.37,142.07,0,46.44,17.78,96.53,53.32,121.97h102.18c21.96-16.65,36.78-43.73,37.71-73.04h-80.31v-63.15h108.09Z"/>
    <path class="cls-2" d="M813.8,674.57c-4.73,19.6-11.51,37.98-20.44,54.63h51.86l-31.42-54.63Z"/>
    <path class="cls-2" d="M654.05,396.75l-26.67-46.36-117.89-203.6v.03c-15.18-20-34.74-32.63-61.3-32.63s-49.9,18.94-49.9,44.74c0,66.82,162.17,38.94,162.17,172.08,0,79.43-50.98,135.74-134.51,135.74-25.88,0-48.51-6.7-68.2-18.29-5.73,13.99-14.77,26.42-27.75,34.47,48.26,8.4,69.96,55.77,69.96,99.46,0,77.86-56.42,112.59-130.73,112.59h-125.3v-209.43L3.81,729.2h498.47c-21.12-34.86-32.67-77.45-32.67-121.97,0-113.03,71.66-210.3,184.43-210.48"/>
    <path class="cls-2" d="M291.48,411.37c0-40.52-23.88-51.05-57.5-51.05h-10.29v103.14h9.76c39.05,0,58.04-11.06,58.04-52.09"/>
    <path class="cls-1" d="M240.48,632.87h-16.8v-110.48h13.04c40.11,0,83.52,2.07,83.52,53.66s-36.89,56.82-79.76,56.82M223.68,360.32h10.3c33.62,0,57.5,10.53,57.5,51.05s-18.99,52.09-58.04,52.09h-9.76v-103.14ZM357.76,448.46c19.7,11.58,42.32,18.29,68.2,18.29,83.53,0,134.51-56.31,134.51-135.74,0-133.14-162.17-105.26-162.17-172.08,0-25.79,24.4-44.74,49.9-44.74s46.11,12.63,61.29,32.63v-.03l-55.86-96.49c-6.39-.85-12.62-1.36-18.45-1.36-15.54,0-30.15,2.73-43.44,7.69l-74.61,128.88c6.81,49.04,42.61,71.85,89.85,90.74,31.99,12.11,71.06,23.69,71.06,64.75,0,30.49-20.07,57.36-52.63,57.36s-62.91-27.38-73.75-57.91l-1.5,1.42c-18.52-29.28-52.69-42.11-98.36-43.51l-30.14,52.04-77.7,135.15v209.43h125.3c74.31,0,130.73-34.72,130.73-112.58,0-43.69-21.7-91.06-69.96-99.46,12.98-8.05,22.01-20.48,27.75-34.47"/>
    <path class="cls-1" d="M652.29,465.16c19.09,0,36.46,6.54,51.04,17.33l-49.28-85.74c-112.78.18-184.44,97.45-184.44,210.48,0,44.52,11.55,87.11,32.67,121.97h96.96c-35.54-25.44-53.32-75.52-53.32-121.97,0-65.77,35.13-142.07,106.37-142.07"/>
    <path class="cls-1" d="M766.91,593.01h-108.09v63.15h80.31c-.94,29.31-15.75,56.39-37.71,73.04h91.95c8.93-16.65,15.71-35.03,20.44-54.63l-46.89-81.56Z"/>
  </g>
</svg>